<svg width="1000" height="500" viewBox="0 0 1000 500" fill="none" xmlns="http://www.w3.org/2000/svg">
<rect width="1000" height="500" fill="#0C0C0C"/>
<path d="M114.453 412.092C115.82 406.965 116.162 401.781 115.479 396.54C114.795 391.299 113.77 388.622 112.402 388.508C111.035 388.508 110.978 387.995 112.231 386.97C113.485 386.058 113.371 371.532 111.89 343.391C110.409 315.135 109.554 295.254 109.326 283.747C109.098 272.126 108.586 262.784 107.788 255.72C107.104 248.656 106.25 244.839 105.225 244.27C104.313 243.586 104.37 243.358 105.396 243.586C106.421 243.7 106.649 241.364 106.079 236.579C105.623 231.68 105.111 229.458 104.541 229.914C103.971 230.37 103.117 229.572 101.978 227.521C100.952 225.357 101.351 224.787 103.174 225.812C104.997 226.724 105.851 223.705 105.737 216.755C105.737 209.805 105.225 204.906 104.199 202.058C103.174 199.095 102.604 190.55 102.49 176.423C102.49 162.295 101.465 143.952 99.4141 121.394C111.605 121.166 119.067 120.71 121.802 120.026C124.65 119.229 135.872 118.545 155.469 117.976C175.065 117.292 186.344 116.665 189.307 116.096C192.269 115.412 195.516 115.355 199.048 115.925C202.694 116.381 205.656 116.21 207.935 115.412C210.327 114.615 217.163 114.33 228.442 114.558C239.836 114.672 248.438 114.501 254.248 114.045C260.059 113.589 265.869 113.418 271.68 113.532C277.604 113.532 281.991 113.19 284.839 112.507C287.801 111.823 294.922 111.311 306.201 110.969C308.48 134.439 309.904 146.402 310.474 146.857C311.043 147.313 311.043 147.541 310.474 147.541C310.018 147.427 311.499 164.061 314.917 197.443C318.449 230.826 320.728 253.042 321.753 264.094C322.892 275.031 323.804 282.209 324.487 285.627C325.285 288.931 325.456 291.779 325 294.172C324.658 296.451 325.399 305.907 327.222 322.541C329.159 339.061 330.298 346.866 330.64 345.954C331.095 344.929 331.437 345.555 331.665 347.834C332.007 349.999 331.893 351.138 331.323 351.252C330.868 351.252 331.095 356.094 332.007 365.778C332.918 375.349 333.887 381.216 334.912 383.381C336.051 385.66 336.108 386.4 335.083 385.603C334.058 384.805 334.684 389.419 336.963 399.445C307.91 401.496 282.104 403.262 259.546 404.743C236.987 406.224 218.701 407.25 204.688 407.819C190.788 408.503 182.414 409.13 179.565 409.699C176.831 410.383 169.938 410.611 158.887 410.383C147.835 410.269 139.233 410.611 133.081 411.408C126.929 412.32 120.719 412.548 114.453 412.092ZM104.028 221.369C103.8 221.711 103.914 220.572 104.37 217.951C104.94 215.331 105.054 215.16 104.712 217.438C104.484 219.717 104.256 221.027 104.028 221.369ZM106.079 227.863C105.965 227.408 105.794 227.521 105.566 228.205C105.452 228.889 105.566 229.117 105.908 228.889C106.25 228.547 106.307 228.205 106.079 227.863ZM114.966 388.679C115.308 388.679 115.251 388.166 114.795 387.141C114.339 386.115 114.168 386.115 114.282 387.141C114.396 388.166 114.624 388.679 114.966 388.679ZM108.984 246.662C110.465 247.688 111.434 247.631 111.89 246.491C112.459 245.352 111.776 244.611 109.839 244.27C107.902 243.928 106.877 243.985 106.763 244.44C106.763 244.896 107.503 245.637 108.984 246.662ZM115.479 357.917C115.82 355.638 115.82 353.758 115.479 352.277C115.137 350.682 114.966 351.822 114.966 355.695C114.966 359.455 115.137 360.196 115.479 357.917ZM121.289 386.799C122.884 387.368 123.34 386.571 122.656 384.406C122.087 382.242 121.289 381.957 120.264 383.552C119.352 385.147 119.694 386.229 121.289 386.799ZM124.023 326.13C127.783 325.902 128.353 325.446 125.732 324.763C123.112 324.079 121.232 324.193 120.093 325.104C118.953 325.902 120.264 326.244 124.023 326.13ZM126.587 366.291C126.929 365.607 126.587 366.348 125.562 368.513C124.536 370.677 124.992 371.247 126.929 370.222C128.866 369.31 129.207 368.57 127.954 368C126.701 367.544 126.245 366.975 126.587 366.291ZM125.903 321.345C127.84 320.091 128.239 319.009 127.1 318.098C125.96 317.186 125.334 317.528 125.22 319.123C125.22 320.604 124.821 321.687 124.023 322.37C123.34 322.94 123.966 322.598 125.903 321.345ZM137.183 393.635C137.98 392.951 136.955 393.065 134.106 393.977C131.372 394.888 130.404 395.799 131.201 396.711C132.113 397.736 133.138 397.622 134.277 396.369C135.417 395.23 136.385 394.318 137.183 393.635ZM137.012 383.039C134.847 383.495 134.391 383.951 135.645 384.406C136.898 384.976 136.613 385.887 134.79 387.141C132.967 388.394 133.423 388.907 136.157 388.679C138.892 388.565 140.088 387.824 139.746 386.457C139.518 385.204 139.518 384.235 139.746 383.552C140.088 382.868 139.176 382.697 137.012 383.039ZM130.176 267.17C127.441 267.854 126.416 268.765 127.1 269.904C127.783 270.93 129.15 270.588 131.201 268.879C133.252 267.056 132.91 266.486 130.176 267.17ZM130.347 257.941C132.511 258.853 133.024 258.169 131.885 255.891C130.745 253.498 129.492 251.903 128.125 251.105C126.758 250.308 126.017 250.422 125.903 251.447C125.789 252.359 126.245 252.985 127.271 253.327C128.41 253.555 128.638 254.182 127.954 255.207C127.384 256.118 128.182 257.03 130.347 257.941ZM137.183 368.854C138.208 368.171 137.752 367.259 135.815 366.12C133.879 364.981 133.366 365.38 134.277 367.316C135.303 369.139 135.303 370.393 134.277 371.076C133.366 371.874 133.651 372.443 135.132 372.785C136.613 373.127 137.069 372.728 136.499 371.589C136.043 370.563 136.271 369.652 137.183 368.854ZM279.541 364.069C271.908 364.183 266.553 363.044 263.477 360.651C260.4 358.145 258.008 356.892 256.299 356.892C254.59 356.778 253.963 356.094 254.419 354.841C254.875 353.474 253.963 349.144 251.685 341.853C249.52 334.447 248.551 326.813 248.779 318.952C249.121 310.977 249.121 304.426 248.779 299.299C248.551 294.172 247.982 290.355 247.07 287.849C246.159 285.228 246.159 283.291 247.07 282.038C248.096 280.785 248.381 277.538 247.925 272.297C247.469 267.056 246.729 263.581 245.703 261.872C244.792 260.163 244.621 258.283 245.19 256.232C245.76 254.182 245.76 252.473 245.19 251.105C244.621 249.624 244.507 247.289 244.849 244.099C245.304 240.795 245.247 235.554 244.678 228.376C244.108 221.084 243.937 215.786 244.165 212.482C244.393 209.064 243.88 206.273 242.627 204.108C241.488 201.944 244.621 201.26 252.026 202.058C260.002 200.121 265.015 199.722 267.065 200.861C269.23 202.001 273.901 201.887 281.079 200.52C288.371 199.038 291.789 197.728 291.333 196.589C290.877 195.336 288.997 193.911 285.693 192.316C263.59 194.937 249.976 196.304 244.849 196.418C242.57 187.303 242.285 183.088 243.994 183.771C245.817 184.455 246.444 183.031 245.874 179.499C245.418 175.967 244.393 175.397 242.798 177.79C241.317 180.069 240.861 179.271 241.431 175.397C242.114 171.524 241.943 168.562 240.918 166.511C239.893 164.46 239.665 161.896 240.234 158.82C240.918 155.744 240.747 153.295 239.722 151.472C238.696 149.535 238.582 147.997 239.38 146.857C240.177 145.718 240.576 145.49 240.576 146.174C240.69 146.743 241.772 146.459 243.823 145.319C245.874 144.18 245.532 142.585 242.798 140.534C240.177 138.483 237.899 137.458 235.962 137.458C234.253 142.129 233.114 146.003 232.544 149.079C232.088 152.155 231.291 155.459 230.151 158.991C229.012 162.523 227.588 165.144 225.879 166.853C224.17 168.562 222.632 169.53 221.265 169.758C220.011 169.872 217.961 171.524 215.112 174.714C212.378 177.904 210.099 179.841 208.276 180.524C206.567 181.208 205.2 182.347 204.175 183.942C203.263 185.537 201.44 186.677 198.706 187.36C195.972 187.93 194.092 188.785 193.066 189.924C192.041 190.949 190.446 191.348 188.281 191.12C186.117 190.778 180.933 191.861 172.729 194.367C164.526 196.76 159.627 197.956 158.032 197.956C156.437 197.956 154.386 198.697 151.88 200.178C149.487 201.545 147.038 201.887 144.531 201.203C142.025 200.406 139.29 200.292 136.328 200.861C133.48 201.317 131.144 201.602 129.321 201.716C127.498 201.83 126.587 202.627 126.587 204.108C126.587 205.59 127.669 206.957 129.834 208.21C132.113 209.349 136.898 208.438 144.189 205.476C147.607 207.299 150.911 207.982 154.102 207.526C157.406 206.957 159.627 210.773 160.767 218.977C161.906 227.18 162.134 232.364 161.45 234.528C160.767 236.693 160.824 238.744 161.621 240.681C162.419 242.618 162.476 246.092 161.792 251.105C161.108 256.005 161.564 261.018 163.159 266.145C164.868 271.271 165.096 274.803 163.843 276.74C162.703 278.677 162.646 281.81 163.672 286.14C164.697 290.355 164.925 293.83 164.355 296.564C163.786 299.185 163.9 300.78 164.697 301.35C165.609 301.919 165.894 304.711 165.552 309.724C165.324 314.623 165.153 319.408 165.039 324.079C164.925 328.636 165.381 332.054 166.406 334.333C167.546 336.612 167.147 338.264 165.21 339.289C163.273 340.201 162.646 340.77 163.33 340.998C164.014 341.226 165.039 340.713 166.406 339.46C167.773 338.207 169.255 340.314 170.85 345.783C172.559 351.138 174.609 355.069 177.002 357.575C179.508 360.082 180.933 362.132 181.274 363.728C181.616 365.209 184.806 367.658 190.845 371.076C196.883 374.494 202.01 375.918 206.226 375.349C210.441 374.893 213.175 375.007 214.429 375.69C215.682 376.374 219.499 377.001 225.879 377.57C232.373 378.254 236.589 378.482 238.525 378.254C240.462 378.026 242.228 377.627 243.823 377.058C245.418 376.488 247.925 376.203 251.343 376.203C254.875 376.317 260.913 375.633 269.458 374.152C278.117 372.671 283.301 371.019 285.01 369.196C286.833 367.373 289.738 366.063 293.726 365.266C297.713 364.354 299.536 362.246 299.194 358.942C298.853 355.638 298.112 354.556 296.973 355.695C295.833 356.835 293.213 357.917 289.111 358.942C285.124 359.854 281.934 361.563 279.541 364.069ZM142.31 357.404C141.398 356.151 141.455 356.436 142.48 358.259C143.62 360.082 144.417 360.253 144.873 358.771C145.329 357.29 145.272 357.006 144.702 357.917C144.132 358.715 143.335 358.544 142.31 357.404ZM144.189 346.296C144.987 347.207 145.386 347.891 145.386 348.347C145.5 348.802 146.24 348.29 147.607 346.809C149.089 345.214 148.69 344.53 146.411 344.758C144.246 344.872 142.993 346.182 142.651 348.688C142.31 351.081 142.48 352.22 143.164 352.106C143.962 351.879 144.132 350.625 143.677 348.347C143.335 346.068 143.506 345.384 144.189 346.296ZM148.975 375.349C151.595 374.893 152.051 374.38 150.342 373.811C148.747 373.241 147.437 373.469 146.411 374.494C145.5 375.633 146.354 375.918 148.975 375.349ZM148.12 333.82C150.171 334.504 151.424 335.131 151.88 335.7C152.336 336.156 152.677 335.814 152.905 334.675C153.247 333.422 152.051 332.795 149.316 332.795C146.582 332.795 146.183 333.137 148.12 333.82ZM154.443 354.157C153.874 353.36 152.507 353.929 150.342 355.866C148.291 357.803 148.576 358.202 151.196 357.062C153.931 355.809 155.013 354.841 154.443 354.157ZM149.487 318.269C149.146 317.585 148.861 317.585 148.633 318.269C148.519 318.838 148.747 319.123 149.316 319.123C149.886 319.123 149.943 318.838 149.487 318.269ZM149.487 162.58C149.601 162.694 149.772 162.295 150 161.384C150.342 160.358 150.114 159.789 149.316 159.675C148.519 159.447 148.633 158.706 149.658 157.453C150.684 156.086 149.715 155.118 146.753 154.548C143.791 153.864 143.05 154.491 144.531 156.428C146.126 158.365 146.354 159.276 145.215 159.162C144.189 158.934 144.303 160.358 145.557 163.435C146.924 166.397 147.892 166.966 148.462 165.144C149.032 163.321 149.373 162.466 149.487 162.58ZM152.051 256.574C152.051 255.207 151.367 255.264 150 256.745C148.747 258.226 148.747 258.91 150 258.796C151.367 258.568 152.051 257.827 152.051 256.574ZM166.919 395.686C166.463 395.002 166.862 395.743 168.115 397.907C169.482 400.186 169.653 401.325 168.628 401.325C167.603 401.325 168.457 402.123 171.191 403.718C174.04 405.427 175.521 405.427 175.635 403.718C175.863 402.123 175.008 401.325 173.071 401.325C171.134 401.325 169.71 400.528 168.799 398.933C168.001 397.451 167.375 396.369 166.919 395.686ZM168.115 375.007C168.115 374.665 168.286 375.349 168.628 377.058C169.084 378.881 170.451 378.994 172.729 377.399C175.122 375.804 174.951 375.064 172.217 375.178C169.596 375.406 168.229 375.349 168.115 375.007ZM169.995 336.213C170.109 336.441 169.881 336.726 169.312 337.067C168.742 337.295 168.685 337.181 169.141 336.726C169.596 336.156 169.881 335.985 169.995 336.213ZM159.229 132.502C161.507 137.287 163.273 139.11 164.526 137.971C165.894 136.717 166.976 136.319 167.773 136.774C168.571 137.23 168.685 137.572 168.115 137.8C167.66 137.914 168.4 139.11 170.337 141.389C169.198 146.06 169.255 147.655 170.508 146.174C171.875 144.693 171.818 143.098 170.337 141.389C171.021 137.857 170.565 136.091 168.97 136.091C167.375 136.091 164.128 134.895 159.229 132.502ZM166.064 184.626C164.128 184.626 163.786 185.537 165.039 187.36C166.406 189.069 167.432 189.069 168.115 187.36C168.799 185.537 168.115 184.626 166.064 184.626ZM178.369 349.201C175.407 349.999 174.04 349.657 174.268 348.176C174.609 346.581 174.325 345.669 173.413 345.441C172.502 345.214 172.616 344.815 173.755 344.245C174.894 343.562 175.35 343.675 175.122 344.587C174.894 345.384 176.147 346.182 178.882 346.979C181.616 347.663 181.445 348.404 178.369 349.201ZM181.445 395.515C181.331 396.654 181.331 397.85 181.445 399.104C181.559 400.357 182.585 399.844 184.521 397.565C186.458 395.287 186.458 394.09 184.521 393.977C182.585 393.977 181.559 394.489 181.445 395.515ZM181.616 359.113C181.502 357.176 181.787 355.524 182.471 354.157C183.154 352.79 184.351 353.246 186.06 355.524C187.882 357.689 187.598 359.284 185.205 360.31C182.926 361.335 181.73 360.936 181.616 359.113ZM178.369 135.92C178.027 135.35 176.717 134.667 174.438 133.869C172.16 132.958 171.134 133.47 171.362 135.407C171.59 137.23 172.9 137.914 175.293 137.458C177.799 137.002 178.825 136.49 178.369 135.92ZM190.503 384.748C189.705 384.52 188.794 385.261 187.769 386.97C186.857 388.679 187.256 388.793 188.965 387.312C190.788 385.944 191.3 385.09 190.503 384.748ZM186.743 168.732C184.009 168.505 183.781 168.732 186.06 169.416C188.452 170.1 189.876 170.214 190.332 169.758C190.788 169.188 189.591 168.846 186.743 168.732ZM183.154 102.766C185.091 102.424 186.401 102.88 187.085 104.133C187.769 105.386 186.8 105.557 184.18 104.646C181.673 103.62 181.331 102.993 183.154 102.766ZM196.484 344.074C198.079 344.872 199.447 345.271 200.586 345.271C201.725 345.157 201.44 346.41 199.731 349.03C198.022 351.537 196.655 351.138 195.63 347.834C194.718 344.53 195.003 343.277 196.484 344.074ZM204.858 411.75C201.782 412.434 201.725 412.092 204.688 410.725C207.65 409.357 209.188 409.016 209.302 409.699C209.53 410.497 208.049 411.18 204.858 411.75ZM189.99 175.056C189.421 171.979 189.022 172.15 188.794 175.568C188.68 178.986 189.022 180.524 189.819 180.183C190.617 179.727 190.674 178.018 189.99 175.056ZM194.604 108.063C194.377 106.241 195.63 105.899 198.364 107.038C201.099 108.063 201.213 108.975 198.706 109.772C196.313 110.456 194.946 109.886 194.604 108.063ZM209.644 354.841C208.732 353.36 209.302 352.847 211.353 353.303C213.517 353.758 214.03 354.499 212.891 355.524C211.751 356.436 210.669 356.208 209.644 354.841ZM204.517 126.521C200.985 125.153 198.934 124.755 198.364 125.324C197.795 125.894 199.561 126.577 203.662 127.375C207.878 128.173 208.162 127.888 204.517 126.521ZM200.415 117.634C198.25 117.292 197.453 117.349 198.022 117.805C198.706 118.26 198.991 119.115 198.877 120.368C198.877 121.621 199.674 121.564 201.27 120.197C202.979 118.716 202.694 117.862 200.415 117.634ZM205.2 153.693C205.542 151.643 205.314 152.554 204.517 156.428C203.833 160.188 204.175 161.669 205.542 160.871C207.023 160.074 207.251 159.219 206.226 158.308C205.2 157.282 204.858 155.744 205.2 153.693ZM212.72 169.587C214.315 169.017 213.631 168.106 210.669 166.853C207.707 165.599 206.909 165.884 208.276 167.707C209.644 169.53 211.125 170.157 212.72 169.587ZM223.657 369.196C223.201 368.854 222.005 368.968 220.068 369.538C218.245 370.222 218.587 369.595 221.094 367.658C223.714 365.607 224.91 365.437 224.683 367.146C224.455 368.854 224.113 369.538 223.657 369.196ZM208.789 121.906C208.333 123.843 208.561 123.615 209.473 121.223C210.384 118.83 210.156 117.634 208.789 117.634C207.422 117.52 207.194 117.691 208.105 118.146C209.131 118.602 209.359 119.855 208.789 121.906ZM213.403 229.914C213.745 229.23 214.657 228.376 216.138 227.351C217.619 226.325 218.758 226.553 219.556 228.034C220.467 229.401 219.556 230.256 216.821 230.598C214.201 230.826 213.062 230.598 213.403 229.914ZM213.403 219.831C213.631 219.261 214.714 219.147 216.65 219.489C218.701 219.717 219.67 220.173 219.556 220.856C219.442 221.54 218.302 221.654 216.138 221.198C214.087 220.743 213.175 220.287 213.403 219.831ZM212.549 153.693C213.005 153.807 213.46 154.434 213.916 155.573C214.372 156.713 214.771 155.858 215.112 153.01C215.454 150.048 215.226 148.225 214.429 147.541C213.745 146.857 213.175 146.971 212.72 147.883C212.264 148.68 211.865 148.509 211.523 147.37C211.296 146.231 211.011 146.8 210.669 149.079C210.327 151.244 210.441 152.554 211.011 153.01C211.58 153.352 212.093 153.579 212.549 153.693ZM219.043 206.672C219.157 206.786 219.442 207.64 219.897 209.235C220.353 210.83 219.328 211.172 216.821 210.261C214.429 209.349 214.144 208.495 215.967 207.697C217.904 206.786 218.416 205.703 217.505 204.45C216.707 203.197 217.334 203.254 219.385 204.621C221.549 205.874 222.005 206.501 220.752 206.501C219.613 206.387 219.043 206.444 219.043 206.672ZM221.436 352.619C221.094 349.999 222.233 349.657 224.854 351.594C227.474 353.531 227.93 354.499 226.221 354.499C224.512 354.499 223.372 354.841 222.803 355.524C222.347 356.208 221.891 355.24 221.436 352.619ZM211.523 149.934C211.865 149.364 212.207 149.706 212.549 150.959C212.891 152.098 212.72 152.326 212.036 151.643C211.353 150.959 211.182 150.389 211.523 149.934ZM223.999 213.85C226.164 213.394 226.847 214.134 226.05 216.071C225.366 218.008 225.366 219.318 226.05 220.002C226.733 220.686 226.449 221.483 225.195 222.395C223.942 223.306 223.6 222.964 224.17 221.369C224.74 219.774 224.284 218.236 222.803 216.755C221.436 215.274 221.834 214.305 223.999 213.85ZM219.556 187.189C219.556 187.076 220.524 186.278 222.461 184.797C224.398 183.316 224.398 183.373 222.461 184.968C220.524 186.449 219.556 187.189 219.556 187.189ZM228.613 235.383C229.069 236.408 229.468 237.604 229.81 238.972C230.151 240.339 229.582 240.795 228.101 240.339C226.619 239.769 226.392 239.086 227.417 238.288C228.556 237.377 228.898 236.408 228.442 235.383C228.101 234.357 228.158 234.357 228.613 235.383ZM234.766 378.425C234.538 378.425 234.424 377.969 234.424 377.058C234.424 376.26 234.538 376.317 234.766 377.229C234.993 378.14 234.993 378.539 234.766 378.425ZM229.468 189.924C230.721 191.633 230.322 191.975 228.271 190.949C226.335 189.81 225.708 188.955 226.392 188.386C227.189 187.702 228.215 188.215 229.468 189.924ZM228.271 179.157C228.385 179.157 229.582 179.442 231.86 180.012C234.253 180.581 234.025 181.037 231.177 181.379C228.442 181.721 227.246 181.436 227.588 180.524C228.044 179.499 228.271 179.043 228.271 179.157ZM224.683 121.052C224.227 122.761 224.91 122.704 226.733 120.881C228.67 119.058 228.898 117.919 227.417 117.463C225.936 117.007 225.252 117.064 225.366 117.634C225.48 118.203 225.252 119.343 224.683 121.052ZM232.031 154.206C232.373 153.181 233.057 152.098 234.082 150.959C235.107 149.706 234.937 150.218 233.569 152.497C232.202 154.662 231.689 155.231 232.031 154.206ZM237.329 212.824C236.418 213.28 236.247 213.109 236.816 212.312C237.5 211.514 237.5 210.66 236.816 209.748C236.247 208.723 236.816 208.039 238.525 207.697C240.348 207.242 240.804 207.868 239.893 209.577C239.095 211.286 238.241 212.368 237.329 212.824ZM241.431 143.781C240.861 144.693 240.69 144.465 240.918 143.098C241.146 141.617 241.431 141.161 241.772 141.73C242.114 142.186 242 142.87 241.431 143.781ZM258.691 371.247C258.35 371.247 257.267 370.336 255.444 368.513C253.735 366.804 252.881 365.437 252.881 364.411C252.881 363.386 253.906 364.297 255.957 367.146C258.122 369.994 259.033 371.361 258.691 371.247ZM266.724 345.271C267.521 344.473 266.724 345.214 264.331 347.492C262.052 349.771 262.223 350.625 264.844 350.056C267.578 349.486 268.376 348.745 267.236 347.834C266.211 346.809 266.04 345.954 266.724 345.271ZM253.564 121.052C253.906 119.571 254.02 118.488 253.906 117.805C253.792 117.007 253.621 117.748 253.394 120.026C253.28 122.191 253.337 122.533 253.564 121.052ZM277.319 351.936C276.636 350.91 275.553 350.511 274.072 350.739C272.705 350.853 272.933 352.049 274.756 354.328C276.693 356.607 277.775 357.062 278.003 355.695C278.345 354.214 278.117 352.961 277.319 351.936ZM267.236 149.934C265.983 147.427 265.186 147.37 264.844 149.763C264.502 152.155 265.129 153.409 266.724 153.522C268.319 153.522 268.49 152.326 267.236 149.934ZM283.13 420.979C281.763 421.434 280.68 421.149 279.883 420.124C279.199 419.213 279.142 418.13 279.712 416.877C280.396 415.624 281.478 415.852 282.959 417.561C284.44 419.383 284.497 420.523 283.13 420.979ZM276.123 222.736C276.807 219.546 276.009 218.92 273.73 220.856C271.566 222.679 271.281 224.274 272.876 225.642C274.471 226.895 275.553 225.926 276.123 222.736ZM275.098 238.288C273.958 240.225 274.186 240.339 275.781 238.63C277.49 236.921 278.117 235.952 277.661 235.725C277.205 235.497 276.351 236.351 275.098 238.288ZM274.756 210.603C274.414 210.033 274.072 210.09 273.73 210.773C273.389 211.343 273.56 211.628 274.243 211.628C274.927 211.514 275.098 211.172 274.756 210.603ZM287.915 378.596C289.168 377.456 288.997 376.431 287.402 375.52C285.807 374.722 285.181 375.292 285.522 377.229C285.864 379.279 285.693 380.533 285.01 380.988C284.44 381.444 284.554 381.9 285.352 382.355C286.149 382.811 286.434 382.583 286.206 381.672C286.092 380.76 286.662 379.735 287.915 378.596ZM286.035 324.079C285.352 324.877 284.554 325.218 283.643 325.104C282.845 324.991 282.674 325.56 283.13 326.813C283.7 327.953 284.497 327.554 285.522 325.617C286.662 323.68 286.833 323.168 286.035 324.079ZM280.908 272.468C281.25 271.442 282.275 270.645 283.984 270.075C285.693 269.392 285.693 268.594 283.984 267.683C282.275 266.657 281.25 267.455 280.908 270.075C280.68 272.582 280.68 273.379 280.908 272.468ZM282.959 139.509C282.845 138.142 281.82 138.028 279.883 139.167C278.06 140.306 278.117 140.99 280.054 141.218C282.104 141.332 283.073 140.762 282.959 139.509ZM285.693 248.2C284.554 248.314 284.155 249.396 284.497 251.447C284.839 253.384 285.409 253.327 286.206 251.276C287.118 249.112 286.947 248.086 285.693 248.2ZM295.264 251.618C294.922 250.365 294.067 250.194 292.7 251.105C291.447 251.903 291.618 252.473 293.213 252.814C294.922 253.156 295.605 252.757 295.264 251.618ZM302.271 307.502C299.878 308.641 300.22 309.439 303.296 309.895C306.372 310.236 307.568 309.61 306.885 308.015C306.315 306.42 304.777 306.249 302.271 307.502ZM308.765 414.826C310.018 417.561 309.619 418.358 307.568 417.219C305.518 416.193 304.891 414.883 305.688 413.288C306.486 411.693 307.511 412.206 308.765 414.826ZM302.441 349.885C303.239 350.227 304.207 350.397 305.347 350.397C306.486 350.284 306.885 349.201 306.543 347.15C306.201 345.1 305.233 344.986 303.638 346.809C302.043 348.518 301.644 349.543 302.441 349.885ZM305.518 299.47C305.404 299.242 304.264 298.957 302.1 298.615C300.049 298.273 300.106 298.387 302.271 298.957C304.549 299.527 305.632 299.698 305.518 299.47ZM307.739 293.83C306.942 293.146 305.916 292.463 304.663 291.779C303.524 291.096 302.498 291.893 301.587 294.172C300.675 296.337 301.644 297.02 304.492 296.223C307.454 295.311 308.537 294.514 307.739 293.83ZM305.005 355.866C303.979 355.866 304.435 356.436 306.372 357.575C308.423 358.715 308.936 358.715 307.91 357.575C306.999 356.322 306.03 355.752 305.005 355.866ZM309.448 275.373C308.993 274.576 308.195 274.689 307.056 275.715C305.916 276.74 306.144 277.139 307.739 276.911C309.448 276.683 310.872 277.31 312.012 278.791C313.265 280.158 313.721 280.044 313.379 278.449C313.037 276.854 312.41 276.171 311.499 276.398C310.701 276.512 310.018 276.171 309.448 275.373ZM308.423 145.319C307.625 144.75 306.828 144.807 306.03 145.49C305.347 146.06 305.745 146.345 307.227 146.345C308.822 146.231 309.22 145.889 308.423 145.319ZM317.139 268.366C317.367 267.227 317.082 266.486 316.284 266.145C315.601 265.689 315.031 266.714 314.575 269.221C314.233 271.613 314.518 272.354 315.43 271.442C316.455 270.531 317.025 269.506 317.139 268.366ZM323.12 313.142C322.778 313.142 322.095 314.053 321.069 315.876C320.158 317.699 320.329 317.699 321.582 315.876C322.949 314.053 323.975 313.142 324.658 313.142C325.456 313.028 325.684 312.686 325.342 312.116C325.114 311.547 324.772 311.604 324.316 312.287C323.861 312.857 323.462 313.142 323.12 313.142ZM329.614 351.252C330.298 351.252 330.526 350.625 330.298 349.372C330.184 348.005 329.899 347.948 329.443 349.201C328.988 350.454 329.045 351.138 329.614 351.252ZM332.52 382.014C333.089 382.811 333.317 382.64 333.203 381.501C333.089 380.362 332.804 379.963 332.349 380.305C331.893 380.76 331.95 381.33 332.52 382.014ZM337.817 304.426C336.108 304.312 334.912 304.255 334.229 304.255C333.659 304.255 333.944 303.514 335.083 302.033C336.222 300.438 337.362 300.495 338.501 302.204C339.754 303.799 339.526 304.54 337.817 304.426ZM336.45 250.764C338.501 250.992 338.102 251.219 335.254 251.447C332.52 251.675 331.551 251.561 332.349 251.105C333.146 250.536 334.513 250.422 336.45 250.764ZM335.938 345.612C334.115 346.752 332.861 347.207 332.178 346.979C331.38 346.752 331.038 346.296 331.152 345.612C331.152 344.815 331.38 344.701 331.836 345.271C332.292 345.84 333.545 345.783 335.596 345.1C337.646 344.302 337.76 344.473 335.938 345.612ZM328.247 240.339C326.424 238.858 326.481 238.288 328.418 238.63C330.241 238.972 331.095 239.712 330.981 240.852C330.868 241.991 329.956 241.82 328.247 240.339ZM327.222 209.235C328.475 207.64 329.557 207.583 330.469 209.064C331.38 210.546 332.349 211.286 333.374 211.286C334.285 211.172 334.684 211.856 334.57 213.337C334.342 214.818 333.83 214.875 333.032 213.508C332.235 212.027 330.754 211.343 328.589 211.457C326.31 211.457 325.854 210.716 327.222 209.235ZM337.134 281.354C336.792 281.696 336.564 282.836 336.45 284.772C336.222 286.709 335.311 286.88 333.716 285.285C332.121 283.69 332.406 282.551 334.57 281.867C336.621 281.184 337.476 281.013 337.134 281.354ZM327.563 181.379C327.563 183.771 327.45 183.373 327.222 180.183C326.88 176.993 327.051 175.625 327.734 176.081C328.304 176.423 328.418 176.822 328.076 177.277C327.62 177.619 327.45 178.986 327.563 181.379ZM333.374 207.014C333.26 207.128 333.146 207.071 333.032 206.843C332.918 206.501 332.975 206.444 333.203 206.672C333.431 206.786 333.488 206.9 333.374 207.014ZM337.988 176.936C338.216 177.049 339.185 178.246 340.894 180.524C342.603 182.689 342.318 183.715 340.039 183.601C337.76 183.373 336.792 182.176 337.134 180.012C337.362 177.733 337.646 176.708 337.988 176.936ZM341.577 198.981C342.261 200.576 341.862 202.115 340.381 203.596C338.786 204.963 338.444 204.165 339.355 201.203C340.153 198.127 340.894 197.386 341.577 198.981ZM343.97 249.738C345.907 247.346 346.305 247.574 345.166 250.422C344.027 253.156 343.058 254.353 342.261 254.011C341.349 253.555 341.919 252.131 343.97 249.738ZM349.609 264.777C350.293 263.866 351.261 262.556 352.515 260.847C353.882 259.024 354.167 257.486 353.369 256.232C352.572 254.979 352.97 254.523 354.565 254.865C356.274 255.207 357.015 256.289 356.787 258.112C356.673 259.935 356.274 260.448 355.591 259.65C355.021 258.739 353.711 259.593 351.66 262.214C349.609 264.834 348.926 265.689 349.609 264.777ZM369.604 290.241C364.25 309.154 362.199 321.06 363.452 325.959C364.705 330.858 366.016 332.909 367.383 332.111C368.75 331.314 369.604 332.51 369.946 335.7C370.402 338.776 370.231 339.403 369.434 337.58C368.636 335.757 367.839 334.846 367.041 334.846C366.243 334.846 366.813 338.947 368.75 347.15C370.687 355.24 371.2 359.569 370.288 360.139C369.377 360.594 367.725 359.512 365.332 356.892C362.939 354.271 362.826 353.189 364.99 353.645C367.155 353.986 367.952 352.961 367.383 350.568C366.927 348.062 367.155 346.467 368.066 345.783C362.598 344.302 360.547 343.277 361.914 342.707C363.395 342.023 363.281 341.682 361.572 341.682C359.863 341.568 358.724 340.998 358.154 339.973C357.585 338.833 356.559 338.264 355.078 338.264C353.711 338.264 353.939 338.321 355.762 338.435C357.585 338.435 359.408 337.808 361.23 336.555C363.053 335.301 362.142 334.732 358.496 334.846C354.964 334.846 354.281 333.763 356.445 331.599C358.61 329.434 359.237 328.409 358.325 328.522C357.414 328.522 356.217 327.554 354.736 325.617C353.369 323.566 353.426 323.111 354.907 324.25C356.388 325.389 357.072 324.706 356.958 322.199C356.958 319.693 356.445 317.471 355.42 315.534C354.395 313.483 354.167 311.604 354.736 309.895C355.306 308.072 356.673 307.445 358.838 308.015C361.117 308.584 362.199 308.186 362.085 306.818C361.971 305.337 362.028 305.223 362.256 306.477C362.598 307.616 362.882 306.534 363.11 303.229C363.452 299.812 362.826 297.134 361.23 295.197C359.635 293.146 359.18 291.779 359.863 291.096C360.661 290.412 363.908 290.127 369.604 290.241ZM360.889 360.48C359.635 360.708 358.382 361.278 357.129 362.189C355.99 363.101 355.819 362.132 356.616 359.284C357.414 356.436 358.61 355.866 360.205 357.575C361.914 359.284 362.142 360.253 360.889 360.48ZM351.147 195.393C348.983 194.709 349.097 194.538 351.489 194.88C353.882 195.108 354.964 195.393 354.736 195.734C354.508 196.076 353.312 195.962 351.147 195.393ZM359.692 338.435C358.895 338.435 358.724 338.719 359.18 339.289C359.749 339.859 360.205 339.859 360.547 339.289C360.889 338.605 360.604 338.321 359.692 338.435ZM358.838 224.104C356.673 225.357 355.249 226.211 354.565 226.667C353.996 227.123 353.654 226.097 353.54 223.591C353.54 220.97 354.964 220.116 357.812 221.027C360.775 221.825 361.117 222.85 358.838 224.104ZM355.42 191.804C353.255 191.462 353.084 190.778 354.907 189.753C356.844 188.728 357.983 188.898 358.325 190.266C358.667 191.633 357.699 192.146 355.42 191.804ZM371.655 359.626C374.845 365.095 378.947 379.222 383.96 402.009C446.395 397.793 481.942 395.572 490.601 395.344C499.373 395.23 508.431 394.831 517.773 394.147C527.116 393.578 532.072 393.635 532.642 394.318C533.211 395.002 533.952 395.002 534.863 394.318C535.775 393.749 538.053 393.521 541.699 393.635C545.345 393.863 548.364 393.635 550.757 392.951C553.149 392.268 560.156 391.584 571.777 390.9C583.398 390.217 590.576 390.046 593.311 390.388C596.159 390.843 599.292 390.786 602.71 390.217C606.242 389.647 608.634 389.59 609.888 390.046C611.141 390.502 611.597 390.445 611.255 389.875C610.913 389.419 611.312 389.134 612.451 389.021C613.704 388.907 615.413 386.172 617.578 380.817C619.857 375.463 621.281 373.013 621.851 373.469C622.42 374.038 622.42 374.551 621.851 375.007C621.395 375.463 621.851 378.71 623.218 384.748C625.724 383.951 626.066 384.52 624.243 386.457C622.534 388.394 621.224 389.419 620.312 389.533C619.515 389.647 618.319 390.217 616.724 391.242C615.243 392.382 615.356 393.236 617.065 393.806C618.774 394.375 618.034 394.717 614.844 394.831C611.768 395.059 609.261 396.084 607.324 397.907C605.387 399.844 603.451 400.528 601.514 399.958C599.577 399.388 598.381 398.135 597.925 396.198C597.583 394.261 596.956 394.034 596.045 395.515C595.247 397.11 594.336 397.907 593.311 397.907C592.399 398.021 591.886 398.591 591.772 399.616C591.659 400.642 590.063 399.73 586.987 396.882C584.025 394.147 581.689 393.692 579.98 395.515C578.385 397.338 578.158 398.591 579.297 399.274C580.55 399.958 580.778 400.186 579.98 399.958C579.183 399.73 578.955 399.844 579.297 400.3C579.639 400.869 579.012 401.667 577.417 402.692C575.936 403.718 573.771 403.376 570.923 401.667C568.188 400.072 566.024 398.249 564.429 396.198C562.834 394.261 562.264 394.546 562.72 397.053C563.289 399.673 561.922 400.812 558.618 400.471C555.428 400.243 554.688 399.787 556.396 399.104C558.219 398.534 558.96 397.679 558.618 396.54C558.39 395.401 556.909 395.629 554.175 397.224C551.554 398.933 548.991 399.16 546.484 397.907C543.978 396.654 542.44 397.679 541.87 400.983C541.414 404.287 539.876 405.313 537.256 404.06C534.749 402.806 532.756 400.983 531.274 398.591C529.793 396.198 529.338 396.084 529.907 398.249C530.477 400.414 529.451 401.154 526.831 400.471C524.325 399.787 521.761 400.471 519.141 402.521C516.634 404.686 515.609 405.085 516.064 403.718C516.52 402.351 516.007 401.439 514.526 400.983C513.045 400.642 511.792 400.926 510.767 401.838C509.855 402.749 508.944 403.034 508.032 402.692C507.235 402.465 506.779 401.667 506.665 400.3C506.551 399.047 505.526 398.534 503.589 398.762C501.766 398.99 501.196 400.528 501.88 403.376C502.677 406.224 501.481 407.136 498.291 406.11C495.101 405.199 493.278 405.256 492.822 406.281C492.367 407.307 492.765 406.281 494.019 403.205C495.386 400.243 494.246 400.072 490.601 402.692C486.955 405.427 483.993 406.11 481.714 404.743C479.435 403.376 477.498 403.148 475.903 404.06C474.422 404.971 472.998 404.914 471.631 403.889C470.264 402.977 468.84 402.92 467.358 403.718C465.991 404.515 465.535 405.256 465.991 405.939C466.447 406.623 465.763 406.509 463.94 405.598C462.118 404.686 461.035 404.629 460.693 405.427C460.352 406.338 459.383 406.395 457.788 405.598C456.193 404.8 455.168 404.629 454.712 405.085C454.37 405.655 452.718 405.769 449.756 405.427C446.908 405.199 444.914 405.199 443.774 405.427C442.635 405.655 441.553 404.914 440.527 403.205C439.502 401.496 438.704 401.895 438.135 404.401C437.679 407.022 436.654 407.705 435.059 406.452C433.577 405.199 432.039 404.8 430.444 405.256C428.849 405.826 427.311 405.37 425.83 403.889C424.349 402.408 422.754 402.635 421.045 404.572C419.336 406.509 417.456 407.307 415.405 406.965C413.354 406.737 413.241 406.167 415.063 405.256C416.886 404.458 415.234 404.458 410.107 405.256C405.094 406.167 402.36 407.022 401.904 407.819C401.449 408.731 398.885 408.788 394.214 407.99C389.657 407.193 386.466 407.136 384.644 407.819C382.935 408.503 380.77 408.503 378.149 407.819C375.529 407.25 374.561 406.224 375.244 404.743C375.928 403.376 375.928 402.521 375.244 402.18C374.561 401.952 375.244 401.154 377.295 399.787C379.46 398.534 378.947 397.565 375.757 396.882C372.567 396.312 371.541 394.432 372.681 391.242C373.82 388.166 373.82 385.375 372.681 382.868C371.655 380.362 371.598 378.881 372.51 378.425C373.535 377.969 373.706 377.115 373.022 375.861C372.453 374.722 372.795 373.811 374.048 373.127C375.301 372.443 374.39 372.159 371.313 372.272C368.237 372.386 367.896 371.874 370.288 370.734C372.681 369.595 372.795 368.114 370.63 366.291C368.465 364.468 368.807 362.246 371.655 359.626ZM361.401 232.307C361.401 231.851 362.313 231.965 364.136 232.648C366.073 233.332 366.073 233.56 364.136 233.332C362.313 232.99 361.401 232.648 361.401 232.307ZM374.048 273.493C371.086 284.545 368.921 289.842 367.554 289.387C366.3 288.817 365.617 288.076 365.503 287.165C365.389 286.254 365.275 286.197 365.161 286.994C365.047 287.678 364.876 286.595 364.648 283.747C364.535 280.899 364.591 280.557 364.819 282.722C365.161 284.772 365.446 284.772 365.674 282.722C365.902 280.671 366.984 279.532 368.921 279.304C370.858 278.962 370.915 278.221 369.092 277.082C371.37 274.917 373.022 273.721 374.048 273.493ZM373.877 361.164C374.105 361.05 373.934 360.025 373.364 358.088C372.795 356.037 373.364 356.436 375.073 359.284C376.896 362.132 377.124 363.215 375.757 362.531C374.39 361.734 373.763 361.278 373.877 361.164ZM373.535 272.98C372.852 273.55 371.883 274.063 370.63 274.519C369.377 274.86 369.718 274.519 371.655 273.493C373.592 272.468 374.219 272.297 373.535 272.98ZM367.041 174.885C365.788 172.036 365.446 170.84 366.016 171.296C366.585 171.752 367.952 171.695 370.117 171.125C372.396 170.555 372.738 171.752 371.143 174.714C369.661 177.562 368.294 177.619 367.041 174.885ZM415.747 177.619C407.202 177.961 401.79 180.866 399.512 186.335C397.347 191.69 395.752 196.931 394.727 202.058C393.815 207.185 394.556 208.951 396.948 207.355C399.341 205.76 400.195 205.817 399.512 207.526C398.828 209.121 398.885 209.52 399.683 208.723C400.594 207.811 400.366 208.495 398.999 210.773C397.632 212.938 396.265 213.565 394.897 212.653C393.53 211.628 391.878 213.736 389.941 218.977C388.118 224.217 385.783 231.851 382.935 241.877C380.2 251.789 377.409 255.948 374.561 254.353C371.712 252.757 372.225 250.935 376.099 248.884C373.934 244.782 373.763 242.105 375.586 240.852C377.409 239.484 377.637 239.427 376.27 240.681C374.902 241.82 375.187 241.763 377.124 240.51C379.175 239.257 380.314 239.143 380.542 240.168C380.884 241.193 381.055 240.51 381.055 238.117C381.055 235.725 380.485 234.3 379.346 233.845C378.32 233.275 378.89 232.136 381.055 230.427C383.333 228.604 384.131 227.692 383.447 227.692C382.764 227.692 382.707 226.838 383.276 225.129C383.96 223.42 383.732 222.338 382.593 221.882C381.453 221.312 381.738 219.66 383.447 216.926C385.156 214.191 385.954 211.628 385.84 209.235C385.726 206.843 386.182 205.988 387.207 206.672C388.346 207.355 389.201 206.273 389.771 203.425C390.34 200.463 390.796 196.931 391.138 192.829C391.479 188.728 392.22 186.962 393.359 187.531C394.613 188.101 395.524 187.36 396.094 185.31C396.663 183.259 396.094 181.607 394.385 180.354C392.79 178.986 395.125 178.018 401.392 177.448C407.658 176.765 410.905 175.967 411.133 175.056C411.475 174.144 413.013 174.999 415.747 177.619ZM378.833 257.258C375.985 266.828 373.991 270.588 372.852 268.537C371.712 266.372 371.712 265.233 372.852 265.119C373.991 264.891 373.478 263.752 371.313 261.701C371.769 259.878 374.276 258.397 378.833 257.258ZM373.364 195.734C373.592 195.051 374.39 194.937 375.757 195.393C377.238 195.848 378.149 196.931 378.491 198.64C378.833 200.349 378.035 200.463 376.099 198.981C374.162 197.386 373.25 196.304 373.364 195.734ZM379.175 188.215C376.668 187.645 377.067 187.531 380.371 187.873C383.675 188.101 384.928 188.329 384.131 188.557C383.447 188.785 381.795 188.671 379.175 188.215ZM380.713 180.695C379.688 183.999 379.346 185.139 379.688 184.113C380.029 182.974 379.517 181.493 378.149 179.67C376.896 177.847 377.238 176.708 379.175 176.252C381.226 175.796 381.738 177.277 380.713 180.695ZM390.454 391.755C391.821 391.071 392.79 390.046 393.359 388.679C394.043 387.312 394.613 388.109 395.068 391.071C395.524 394.147 394.556 395.173 392.163 394.147C389.771 393.236 389.201 392.438 390.454 391.755ZM435.059 220.173C430.729 219.375 428.223 219.489 427.539 220.515C426.969 221.426 425.09 222.736 421.899 224.445C418.823 226.04 416.374 228.319 414.551 231.281C412.842 234.13 411.361 236.009 410.107 236.921C408.854 237.718 408.512 239.029 409.082 240.852C409.766 242.561 408.512 245.58 405.322 249.909C402.132 254.239 400.366 258.34 400.024 262.214C399.683 266.088 397.119 267.74 392.334 267.17C404.069 240.396 412.215 225.3 416.772 221.882C405.151 224.616 400.594 225.471 403.101 224.445C405.607 223.42 407.145 222.224 407.715 220.856C408.398 219.375 408.911 219.261 409.253 220.515C427.596 212.198 437.394 207.412 438.647 206.159C440.015 204.792 441.04 204.393 441.724 204.963C442.407 205.419 443.205 205.02 444.116 203.767C445.028 202.399 446.11 201.488 447.363 201.032C448.73 200.576 448.73 199.836 447.363 198.811C446.11 197.785 447.249 197.102 450.781 196.76C454.313 196.304 455.908 195.905 455.566 195.563C455.339 195.108 456.592 194.709 459.326 194.367C462.061 194.025 463.485 193.285 463.599 192.146C463.713 190.892 464.681 189.867 466.504 189.069C468.441 188.272 469.922 187.246 470.947 185.993C471.973 184.74 472.599 184.398 472.827 184.968C473.055 185.424 474.194 184.569 476.245 182.404C478.41 180.24 480.233 179.328 481.714 179.67C483.309 179.898 485.189 179.214 487.354 177.619C489.632 176.024 490.031 175.113 488.55 174.885C487.069 174.543 486.442 173.973 486.67 173.176C487.012 172.264 487.923 171.695 489.404 171.467C490.885 171.239 491.854 171.524 492.31 172.321C492.765 173.005 493.734 173.233 495.215 173.005C496.81 172.663 498.69 171.296 500.854 168.903C503.133 166.397 504.5 165.144 504.956 165.144C505.526 165.03 505.355 165.941 504.443 167.878C503.532 169.815 502.848 171.353 502.393 172.492C502.051 173.632 499.886 175.056 495.898 176.765C491.911 178.474 488.892 179.955 486.841 181.208C484.79 182.347 483.879 183.259 484.106 183.942C484.334 184.512 480.29 185.993 471.973 188.386C467.415 193.741 463.883 196.475 461.377 196.589C458.984 196.703 457.275 197.329 456.25 198.469C455.339 199.494 454.655 200.633 454.199 201.887C453.857 203.14 452.49 204.108 450.098 204.792C447.705 205.362 449.129 206.102 454.37 207.014C460.181 206.444 464.396 207.185 467.017 209.235C469.637 211.286 471.859 213.907 473.682 217.097C475.505 220.287 475.675 226.667 474.194 236.237C472.713 245.694 471.46 250.935 470.435 251.96C469.523 252.985 468.896 254.694 468.555 257.087C468.213 259.479 466.96 262.727 464.795 266.828C462.63 270.816 460.807 276.569 459.326 284.089C457.845 291.494 455.965 297.476 453.687 302.033C451.408 306.477 450.439 309.382 450.781 310.749C451.123 312.002 449.813 315.192 446.851 320.319C443.888 325.332 442.179 329.035 441.724 331.428C441.382 333.82 441.04 334.789 440.698 334.333C440.47 333.763 439.673 336.099 438.306 341.34C437.052 346.581 436.483 354.613 436.597 365.437C447.534 369.424 454.37 370.791 457.104 369.538C459.953 368.285 463.428 366.348 467.529 363.728C471.745 360.993 475.675 356.892 479.321 351.423C482.967 345.84 485.588 342.878 487.183 342.536C488.778 342.08 490.658 339.289 492.822 334.162C494.987 329.035 497.209 324.991 499.487 322.028C501.88 318.952 505.184 311.49 509.399 299.641C513.615 287.678 516.235 281.354 517.261 280.671C518.286 279.987 519.255 277.709 520.166 273.835C521.077 269.847 522.616 264.777 524.78 258.625C526.945 252.359 528.027 248.029 528.027 245.637C528.027 243.244 529.793 238.402 533.325 231.11C536.857 223.819 539.079 217.78 539.99 212.995C541.016 208.21 542.839 205.476 545.459 204.792C548.193 203.994 549.674 203.197 549.902 202.399C550.13 201.602 550.472 201.659 550.928 202.57C551.497 203.368 553.776 204.222 557.764 205.134C561.865 206.045 564.6 206.273 565.967 205.817C567.334 205.248 568.929 205.134 570.752 205.476C572.575 205.817 577.645 205.533 585.962 204.621C580.151 218.749 577.075 227.066 576.733 229.572C576.392 231.965 575.651 233.788 574.512 235.041C573.486 236.18 572.803 237.946 572.461 240.339C572.233 242.731 571.379 244.953 569.897 247.004C568.416 248.941 567.676 250.935 567.676 252.985C567.676 255.036 566.992 256.517 565.625 257.429C564.258 258.226 563.118 260.619 562.207 264.606C561.296 268.48 559.131 274.177 555.713 281.696C552.409 289.102 551.099 293.602 551.782 295.197C552.466 296.792 551.554 300.267 549.048 305.622C546.655 310.863 545.573 313.996 545.801 315.021C546.029 316.047 544.604 319.351 541.528 324.934C538.566 330.402 537.313 334.96 537.769 338.605C538.338 342.251 537.882 344.701 536.401 345.954C535.034 347.093 534.351 349.6 534.351 353.474C539.478 360.993 546.94 364.981 556.738 365.437C571.094 356.322 579.24 351.309 581.177 350.397C583.114 349.372 584.993 348.29 586.816 347.15C588.753 346.011 589.722 344.815 589.722 343.562C589.836 342.194 590.975 340.941 593.14 339.802C595.418 338.662 598.21 335.529 601.514 330.402C604.818 325.161 605.501 322.712 603.564 323.054C601.742 323.396 601.742 323.396 603.564 323.054C605.501 322.598 606.47 321.914 606.47 321.003C606.47 320.091 607.78 317.984 610.4 314.68C613.021 311.376 614.388 308.983 614.502 307.502C614.73 305.907 615.527 304.426 616.895 303.059C618.262 301.577 619.572 297.419 620.825 290.583C622.078 283.747 623.446 278.62 624.927 275.202C626.408 271.784 626.693 265.917 625.781 257.6C624.87 249.169 624.015 244.782 623.218 244.44C622.42 244.099 621.851 241.421 621.509 236.408C621.281 231.281 620.369 227.294 618.774 224.445C617.179 221.483 616.097 218.179 615.527 214.533C615.072 210.887 616.724 206.216 620.483 200.52C628.345 196.988 632.161 194.595 631.934 193.342C631.82 192.089 632.275 191.462 633.301 191.462C634.44 191.462 634.611 192.202 633.813 193.684C633.13 195.165 633.358 196.532 634.497 197.785C635.636 199.038 637.972 199.95 641.504 200.52C644.922 205.077 646.745 208.438 646.973 210.603C647.201 212.653 646.916 214.533 646.118 216.242C645.321 217.837 645.15 220.401 645.605 223.933C646.175 227.351 646.403 230.199 646.289 232.478C646.289 234.756 645.662 236.579 644.409 237.946C643.27 239.2 642.7 242.276 642.7 247.175C642.7 252.074 641.561 257.315 639.282 262.897C637.004 268.366 635.978 271.898 636.206 273.493C636.434 275.088 635.921 276.797 634.668 278.62C633.415 280.443 632.788 282.152 632.788 283.747C632.902 285.342 631.649 288.361 629.028 292.805C626.522 297.248 624.471 301.122 622.876 304.426C621.395 307.73 619.8 310.35 618.091 312.287C616.496 314.224 615.527 315.99 615.186 317.585C614.958 319.066 613.647 320.775 611.255 322.712C608.862 324.535 606.584 327.497 604.419 331.599C602.254 335.7 600.374 338.093 598.779 338.776C597.298 339.46 595.988 341.112 594.849 343.732C593.709 346.239 588.184 351.252 578.271 358.771C568.473 366.177 561.979 370.222 558.789 370.905C555.713 371.703 552.58 373.298 549.39 375.69C546.313 378.083 544.035 379.393 542.554 379.621C541.187 379.963 539.591 379.621 537.769 378.596C536.06 377.57 533.439 377.513 529.907 378.425C526.489 379.45 522.502 379.336 517.944 378.083C513.387 376.83 510.14 375.576 508.203 374.323C506.38 373.07 504.329 370.791 502.051 367.487C499.886 364.183 498.462 360.025 497.778 355.012C497.095 349.999 497.209 345.498 498.12 341.511C499.032 337.409 498.576 335.814 496.753 336.726C495.044 337.637 494.189 339.574 494.189 342.536C490.885 344.929 489.062 347.207 488.721 349.372C488.379 351.423 484.049 356.037 475.732 363.215C467.415 370.279 462.004 374.266 459.497 375.178C456.991 376.203 455.452 377.456 454.883 378.938C454.313 380.533 452.035 381.558 448.047 382.014C444.059 382.583 442.977 383.438 444.8 384.577C446.737 385.716 446.338 386.286 443.604 386.286C440.983 386.286 439.901 385.716 440.356 384.577C440.926 383.552 440.584 383.153 439.331 383.381C438.078 383.609 436.768 383.78 435.4 383.894C434.147 384.121 430.387 384.064 424.121 383.723C417.969 383.495 413.639 382.526 411.133 380.817C408.626 379.222 406.974 377.741 406.177 376.374C405.379 375.007 404.126 373.868 402.417 372.956C400.708 372.159 399.91 370.791 400.024 368.854C400.252 367.032 399.854 364.981 398.828 362.702C397.803 360.31 397.689 358.885 398.486 358.43C399.284 357.86 399.284 355.752 398.486 352.106C397.803 348.461 397.803 345.954 398.486 344.587C399.17 343.106 399.227 341.625 398.657 340.144C398.201 338.662 398.885 337.067 400.708 335.358C402.645 333.535 404.012 329.263 404.81 322.541C405.721 315.819 406.746 311.604 407.886 309.895C409.139 308.186 412.443 298.957 417.798 282.209C423.267 265.347 426.514 256.46 427.539 255.549C428.564 254.637 429.191 253.042 429.419 250.764C429.647 248.371 430.9 245.694 433.179 242.731C435.457 239.655 436.995 236.465 437.793 233.161C438.704 229.743 437.793 225.414 435.059 220.173ZM398.999 332.795C398.999 334.504 398.714 335.928 398.145 337.067C397.689 338.207 397.29 338.435 396.948 337.751C396.606 336.953 396.834 335.472 397.632 333.308C398.543 331.143 398.999 330.972 398.999 332.795ZM397.461 320.319C396.891 318.382 397.746 317.699 400.024 318.269C402.303 318.724 402.588 319.693 400.879 321.174C399.284 322.541 398.145 322.256 397.461 320.319ZM400.024 303.742C402.417 304.654 402.417 305.793 400.024 307.16C397.746 308.413 396.549 307.901 396.436 305.622C396.436 303.343 397.632 302.717 400.024 303.742ZM402.246 407.648C402.588 406.965 403.841 406.566 406.006 406.452C408.171 406.452 408 406.794 405.493 407.478C403.101 408.275 402.018 408.332 402.246 407.648ZM395.239 221.027C394.214 223.99 393.758 224.502 393.872 222.565C394.1 220.629 393.815 219.204 393.018 218.293C392.22 217.382 392.676 216.869 394.385 216.755C396.094 216.641 396.379 218.065 395.239 221.027ZM392.334 210.944C392.676 211.058 392.904 210.887 393.018 210.432C393.245 209.976 393.132 209.919 392.676 210.261C392.22 210.489 392.106 210.716 392.334 210.944ZM408.398 369.88C408.968 369.538 409.139 369.025 408.911 368.342C408.683 367.658 407.715 368.228 406.006 370.051C404.411 371.988 404.126 372.842 405.151 372.614C406.291 372.5 406.974 372.102 407.202 371.418C407.43 370.734 407.829 370.222 408.398 369.88ZM397.29 211.97C397.746 211.856 398.031 211.514 398.145 210.944C398.372 210.261 398.201 210.261 397.632 210.944C397.062 211.628 396.948 211.97 397.29 211.97ZM397.119 169.758C395.98 169.302 396.208 168.903 397.803 168.562C399.398 168.22 399.967 168.448 399.512 169.245C399.17 170.043 398.372 170.214 397.119 169.758ZM409.424 334.675C409.082 333.877 408.398 333.763 407.373 334.333C406.348 334.903 406.519 335.301 407.886 335.529C409.253 335.757 409.766 335.472 409.424 334.675ZM410.449 356.55C410.107 354.271 409.993 353.758 410.107 355.012C410.335 356.151 410.05 357.119 409.253 357.917C408.569 358.601 408.683 359.113 409.595 359.455C410.62 359.683 410.905 358.715 410.449 356.55ZM414.209 369.709C413.981 368.228 413.696 367.089 413.354 366.291C413.013 365.493 412.272 366.063 411.133 368C409.993 369.823 410.278 370.905 411.987 371.247C413.696 371.703 414.437 371.19 414.209 369.709ZM409.595 292.634C407.658 291.153 406.974 289.899 407.544 288.874C408.228 287.735 409.253 287.165 410.62 287.165C412.101 287.165 412.785 288.475 412.671 291.096C412.671 293.602 411.646 294.115 409.595 292.634ZM418.823 259.992C418.14 262.157 417.855 263.695 417.969 264.606C418.083 265.518 417.171 266.372 415.234 267.17C413.298 267.854 412.044 267.17 411.475 265.119C410.905 262.954 411.475 261.986 413.184 262.214C415.007 262.442 415.861 261.758 415.747 260.163C415.633 258.454 416.26 257.486 417.627 257.258C419.108 256.916 419.507 257.827 418.823 259.992ZM421.729 222.224C420.361 222.338 420.703 222.11 422.754 221.54C424.805 220.97 425.488 220.913 424.805 221.369C424.235 221.825 423.21 222.11 421.729 222.224ZM426.172 215.217C421.956 216.698 419.792 217.78 419.678 218.464C419.678 219.147 420.988 219.261 423.608 218.806C423.722 217.894 424.235 217.438 425.146 217.438C426.172 217.325 427.995 216.641 430.615 215.388C433.236 214.021 434.603 212.938 434.717 212.141C434.945 211.343 435.913 210.944 437.622 210.944C439.331 210.83 440.413 210.033 440.869 208.552C441.325 207.071 439.958 207.071 436.768 208.552C433.691 209.919 432.039 211.001 431.812 211.799C431.698 212.596 430.957 212.767 429.59 212.312C428.337 211.742 427.197 212.71 426.172 215.217ZM425.659 253.498C423.608 254.182 423.267 253.669 424.634 251.96C426.115 250.251 427.197 249.909 427.881 250.935C428.564 251.846 427.824 252.701 425.659 253.498ZM432.324 391.755C432.438 389.476 432.894 389.248 433.691 391.071C434.489 393.008 435.173 393.749 435.742 393.293C436.426 392.837 436.711 393.635 436.597 395.686C436.483 397.85 435.628 398.534 434.033 397.736C432.438 397.053 431.755 396.483 431.982 396.027C432.21 395.572 432.324 394.147 432.324 391.755ZM431.47 317.927C430.216 318.269 429.362 319.237 428.906 320.832C428.564 322.427 429.761 322.883 432.495 322.199C435.343 321.516 436.198 320.547 435.059 319.294C434.033 318.041 432.837 317.585 431.47 317.927ZM431.47 175.227C431.356 176.024 429.704 176.594 426.514 176.936C423.438 177.163 423.324 176.651 426.172 175.397C429.134 174.03 429.191 174.03 426.343 175.397C423.608 176.651 423.836 176.765 427.026 175.739C430.216 174.6 431.698 174.429 431.47 175.227ZM425.146 219.318C425.26 219.546 425.944 219.261 427.197 218.464C428.451 217.666 428.394 217.552 427.026 218.122C425.659 218.692 425.033 219.09 425.146 219.318ZM434.546 297.59C435.229 295.995 435.173 294.799 434.375 294.001C433.577 293.203 432.495 294.001 431.128 296.394C429.875 298.786 429.932 299.982 431.299 299.982C432.78 299.982 433.862 299.185 434.546 297.59ZM426.001 220.173C425.887 220.515 426.115 220.856 426.685 221.198C427.368 221.426 427.482 221.255 427.026 220.686C426.571 220.002 426.229 219.831 426.001 220.173ZM439.844 327.668C438.249 328.238 437.964 329.206 438.989 330.573C440.015 331.94 440.812 331.656 441.382 329.719C442.065 327.782 441.553 327.098 439.844 327.668ZM444.287 269.733C445.426 269.506 446.11 269.107 446.338 268.537C446.566 267.854 445.426 267.569 442.92 267.683C440.413 267.797 439.73 268.252 440.869 269.05C442.008 269.733 443.148 269.961 444.287 269.733ZM447.021 347.492C447.021 349.657 446.566 349.714 445.654 347.663C444.743 345.612 444.743 344.53 445.654 344.416C446.566 344.302 447.021 345.327 447.021 347.492ZM450.781 176.081C445.768 177.334 442.236 177.733 440.186 177.277C438.249 176.708 437.394 176.252 437.622 175.91C437.85 175.454 439.787 173.916 443.433 171.296L453.174 172.492L450.781 176.081ZM453.687 390.729C451.294 392.894 450.041 392.552 449.927 389.704C449.927 386.97 451.18 385.887 453.687 386.457C456.193 387.141 456.193 388.565 453.687 390.729ZM447.021 181.892C446.908 182.461 445.597 182.404 443.091 181.721C440.698 181.037 440.812 180.752 443.433 180.866C446.053 180.866 447.249 181.208 447.021 181.892ZM449.927 243.244C451.408 242.105 450.781 241.25 448.047 240.681C445.312 239.997 444.572 240.567 445.825 242.39C447.078 244.099 448.446 244.383 449.927 243.244ZM442.578 205.988C442.464 206.216 443.091 206.216 444.458 205.988C445.825 205.76 445.882 205.646 444.629 205.646C443.376 205.646 442.692 205.76 442.578 205.988ZM446.68 169.416C446.11 170.441 444.914 170.612 443.091 169.929C441.382 169.131 441.724 168.618 444.116 168.391C446.509 168.049 447.363 168.391 446.68 169.416ZM462.061 332.111C462.858 333.023 461.89 333.137 459.155 332.453C456.535 331.77 456.136 331.314 457.959 331.086C459.896 330.858 461.263 331.2 462.061 332.111ZM455.396 199.665C455.737 199.323 455.794 198.697 455.566 197.785C455.452 196.874 454.427 196.646 452.49 197.102C450.667 197.557 449.699 198.241 449.585 199.152C449.471 199.95 449.87 200.69 450.781 201.374C451.807 202.058 452.718 202.001 453.516 201.203C454.427 200.406 455.054 199.893 455.396 199.665ZM475.732 374.665C476.53 376.374 475.846 376.944 473.682 376.374C471.517 375.918 471.118 375.121 472.485 373.981C473.966 372.842 475.049 373.07 475.732 374.665ZM472.144 313.483C474.194 312.572 474.308 312.8 472.485 314.167C470.776 315.42 469.808 315.819 469.58 315.363C469.352 314.908 470.207 314.281 472.144 313.483ZM470.776 175.227C471.232 175.682 470.036 175.967 467.188 176.081C464.339 176.081 464.111 175.853 466.504 175.397C468.896 174.828 470.321 174.771 470.776 175.227ZM472.144 194.367C472.599 194.595 474.137 195.108 476.758 195.905C479.492 196.589 479.72 197.671 477.441 199.152C475.163 200.52 473.625 200.007 472.827 197.614C472.03 195.222 471.802 194.139 472.144 194.367ZM494.702 390.729C495.728 391.755 495.215 392.552 493.164 393.122C491.227 393.692 490.715 393.179 491.626 391.584C492.651 390.103 493.677 389.818 494.702 390.729ZM483.081 226.496C483.195 225.243 483.366 225.3 483.594 226.667C483.936 227.92 484.676 228.547 485.815 228.547C486.955 228.547 487.126 229.174 486.328 230.427C485.531 231.566 484.79 231.509 484.106 230.256C483.423 229.003 483.081 227.749 483.081 226.496ZM487.354 161.726C487.24 161.726 485.986 161.669 483.594 161.555C481.315 161.327 481.144 160.757 483.081 159.846C485.018 158.82 486.271 158.877 486.841 160.017C487.41 161.042 487.581 161.612 487.354 161.726ZM487.524 228.547C487.41 226.382 488.664 225.756 491.284 226.667C493.905 227.578 493.962 228.661 491.455 229.914C489.062 231.167 487.752 230.712 487.524 228.547ZM495.898 174.372C496.126 173.802 495.329 173.802 493.506 174.372C491.683 174.942 491.569 175.227 493.164 175.227C494.759 175.227 495.671 174.942 495.898 174.372ZM500 173.859C499.886 173.745 499.259 173.461 498.12 173.005C497.095 172.435 496.525 172.378 496.411 172.834C496.297 173.29 496.867 173.632 498.12 173.859C499.487 173.973 500.114 173.973 500 173.859ZM499.658 173.688C499.772 173.688 500.114 173.461 500.684 173.005C501.367 172.435 501.31 172.378 500.513 172.834C499.829 173.29 499.544 173.575 499.658 173.688ZM504.102 196.418C502.051 193.342 502.108 192.032 504.272 192.487C506.437 192.943 507.747 194.31 508.203 196.589C508.659 198.868 508.602 200.178 508.032 200.52C507.463 200.747 506.152 199.38 504.102 196.418ZM510.767 201.203C509.627 200.064 510.254 200.178 512.646 201.545C515.153 202.912 515.78 203.482 514.526 203.254C513.273 203.026 512.02 202.342 510.767 201.203ZM515.21 197.956C512.931 198.412 511.906 197.899 512.134 196.418C512.476 194.823 513.672 194.538 515.723 195.563C517.773 196.589 517.603 197.386 515.21 197.956ZM522.559 199.323C520.622 199.779 519.881 198.868 520.337 196.589C520.907 194.196 521.875 193.968 523.242 195.905C524.723 197.728 524.495 198.868 522.559 199.323ZM531.616 392.951C531.502 392.723 532.471 392.04 534.521 390.9C536.572 389.875 537.142 390.046 536.23 391.413C535.319 392.78 534.351 393.407 533.325 393.293C532.3 393.293 531.73 393.179 531.616 392.951ZM527.173 189.069C526.831 189.525 527.059 190.152 527.856 190.949C528.768 191.747 528.255 191.633 526.318 190.607C524.382 189.468 524.154 188.841 525.635 188.728C527.116 188.5 527.629 188.614 527.173 189.069ZM532.129 221.369C531.901 221.141 530.99 220.116 529.395 218.293C527.913 216.47 528.027 215.274 529.736 214.704C531.445 214.134 532.3 215.16 532.3 217.78C532.414 220.401 532.357 221.597 532.129 221.369ZM537.598 383.894C537.37 383.78 538.509 383.324 541.016 382.526C543.636 381.729 544.092 382.185 542.383 383.894C540.674 385.603 539.478 386.058 538.794 385.261C538.224 384.463 537.826 384.007 537.598 383.894ZM531.445 185.822C531.104 184.911 532.015 185.594 534.18 187.873C536.344 190.038 536.515 190.493 534.692 189.24C532.869 187.873 531.787 186.734 531.445 185.822ZM543.579 389.021C544.263 387.084 545.174 386.514 546.313 387.312C547.453 388.109 547.111 389.077 545.288 390.217C543.465 391.356 542.896 390.957 543.579 389.021ZM544.092 249.567C543.408 248.314 543.18 248.998 543.408 251.618C543.636 254.125 543.978 254.751 544.434 253.498C545.003 252.131 544.889 250.821 544.092 249.567ZM548.877 169.929C549.105 171.638 548.307 172.492 546.484 172.492C544.775 172.378 544.718 171.467 546.313 169.758C547.909 168.049 548.763 168.106 548.877 169.929ZM552.637 206.501C551.839 204.792 551.099 203.881 550.415 203.767C549.845 203.653 549.333 204.222 548.877 205.476C548.535 206.729 549.276 207.64 551.099 208.21C552.922 208.666 553.434 208.096 552.637 206.501ZM556.567 172.15C556.795 172.264 556.51 172.264 555.713 172.15C554.915 171.923 554.801 171.809 555.371 171.809C555.941 171.809 556.34 171.923 556.567 172.15ZM560.156 209.748C559.928 209.292 559.473 209.349 558.789 209.919C558.219 210.489 558.333 210.716 559.131 210.603C560.042 210.375 561.068 211.286 562.207 213.337C563.46 215.274 564.429 215.046 565.112 212.653C565.91 210.261 565.34 209.292 563.403 209.748C561.466 210.09 560.384 210.09 560.156 209.748ZM579.297 349.885C579.183 349.771 578.101 349.999 576.05 350.568C574.113 351.138 573.657 350.625 574.683 349.03C575.822 347.435 576.904 347.207 577.93 348.347C578.955 349.372 579.411 349.885 579.297 349.885ZM573.145 170.271C574.284 170.954 573.258 171.41 570.068 171.638C566.992 171.752 566.423 171.41 568.359 170.612C570.41 169.701 572.005 169.587 573.145 170.271ZM579.81 400.983C579.924 400.983 580.721 401.61 582.202 402.863C583.683 404.117 584.139 405.028 583.569 405.598C583.114 406.167 582.373 405.541 581.348 403.718C580.322 402.009 579.81 401.097 579.81 400.983ZM583.74 389.875C584.766 390.217 584.481 390.445 582.886 390.559C581.291 390.673 580.778 390.502 581.348 390.046C582.031 389.704 582.829 389.647 583.74 389.875ZM586.816 364.411C582.943 364.525 582.544 363.443 585.62 361.164C588.696 358.771 590.633 358.715 591.431 360.993C592.228 363.158 590.69 364.297 586.816 364.411ZM589.38 168.732C590.519 169.872 590.462 170.498 589.209 170.612C587.956 170.612 587.272 170.327 587.158 169.758C587.044 169.074 585.905 169.245 583.74 170.271C581.576 171.182 579.753 171.524 578.271 171.296C576.79 170.954 576.05 170.157 576.05 168.903C576.164 167.65 576.278 167.65 576.392 168.903C576.619 170.157 577.93 170.783 580.322 170.783C582.829 170.783 584.709 170.157 585.962 168.903C587.215 167.536 588.354 167.479 589.38 168.732ZM586.816 233.845C586.019 234.642 585.164 233.959 584.253 231.794C583.341 229.515 583.74 229.117 585.449 230.598C587.158 231.965 587.614 233.047 586.816 233.845ZM600.83 380.988C600.944 381.102 600.488 382.242 599.463 384.406C598.551 386.571 597.07 386.799 595.02 385.09C593.083 383.381 593.538 382.242 596.387 381.672C599.349 381.102 600.83 380.874 600.83 380.988ZM604.761 400.642C605.103 400.642 606.413 400.869 608.691 401.325C611.084 401.895 611.597 403.148 610.229 405.085C608.862 407.136 607.153 407.136 605.103 405.085C603.052 403.034 600.659 402.863 597.925 404.572C595.19 406.281 594.393 406.281 595.532 404.572C596.672 402.863 596.558 401.781 595.19 401.325C593.937 400.983 593.538 400.3 593.994 399.274C594.564 398.363 595.475 398.078 596.729 398.42C597.982 398.876 598.779 399.559 599.121 400.471C599.577 401.382 600.545 401.667 602.026 401.325C603.621 400.983 604.533 400.756 604.761 400.642ZM587.329 265.974C586.759 266.088 587.101 265.404 588.354 263.923C589.722 262.328 590.291 262.385 590.063 264.094C589.836 265.803 589.494 266.543 589.038 266.315C588.582 265.974 588.013 265.86 587.329 265.974ZM590.063 243.928C589.038 246.206 588.241 246.206 587.671 243.928C587.101 241.535 587.614 240.396 589.209 240.51C590.918 240.51 591.203 241.649 590.063 243.928ZM599.976 372.956C599.862 373.868 600.26 375.178 601.172 376.887C602.197 378.596 601.628 378.482 599.463 376.545C597.412 374.722 597.013 373.469 598.267 372.785C599.634 372.102 600.203 372.159 599.976 372.956ZM597.07 170.1C597.64 170.214 596.842 170.327 594.678 170.441C592.627 170.441 592.171 169.644 593.311 168.049C594.564 166.34 595.361 166.226 595.703 167.707C596.045 169.074 596.501 169.872 597.07 170.1ZM606.128 400.642C605.558 400.642 605.16 400.926 604.932 401.496C604.704 402.066 604.989 402.066 605.786 401.496C606.584 401.04 606.698 400.756 606.128 400.642ZM607.666 387.824C608.35 386.913 609.033 386.913 609.717 387.824C610.4 388.736 610.059 389.191 608.691 389.191C607.438 389.191 607.096 388.736 607.666 387.824ZM621.167 371.076C621.281 367.316 622.192 362.702 623.901 357.233C625.724 351.651 627.262 346.638 628.516 342.194C634.212 343.903 636.434 346.125 635.181 348.859C634.041 351.48 632.731 353.303 631.25 354.328C629.883 355.354 629.085 355.354 628.857 354.328C628.743 353.189 628.573 355.41 628.345 360.993C630.396 363.386 630.339 364.411 628.174 364.069C626.123 363.614 625.098 364.468 625.098 366.633C625.098 368.798 623.787 370.279 621.167 371.076ZM630.054 368.854C631.079 366.918 632.048 367.089 632.959 369.367C633.984 371.646 633.529 372.614 631.592 372.272C629.655 371.931 628.459 372.159 628.003 372.956C627.661 373.868 627.091 373.811 626.294 372.785C625.61 371.76 625.838 371.304 626.978 371.418C628.117 371.646 629.142 370.791 630.054 368.854ZM628.003 389.704C628.345 387.653 629.028 386.913 630.054 387.482C631.193 388.052 631.079 389.077 629.712 390.559C628.345 392.04 627.775 391.755 628.003 389.704ZM634.326 409.357C632.275 409.471 631.82 408.845 632.959 407.478C634.212 406.224 634.497 405.256 633.813 404.572C633.244 403.889 633.586 403.547 634.839 403.547C636.092 403.547 636.377 403.889 635.693 404.572C635.124 405.256 635.238 406.167 636.035 407.307C636.947 408.56 636.377 409.243 634.326 409.357ZM630.737 350.739C629.142 350.739 628.345 350.967 628.345 351.423C628.459 351.765 629.085 352.049 630.225 352.277C631.364 352.391 632.161 352.163 632.617 351.594C633.073 350.91 632.446 350.625 630.737 350.739ZM628.516 342.194C632.389 329.776 635.01 320.604 636.377 314.68C637.858 308.755 639.795 302.831 642.188 296.906C644.58 290.982 646.232 288.19 647.144 288.532C648.055 288.874 647.827 290.412 646.46 293.146C645.093 295.767 644.808 297.134 645.605 297.248C646.403 297.362 646.346 297.818 645.435 298.615C644.523 299.413 644.181 301.748 644.409 305.622C644.637 309.382 644.58 310.92 644.238 310.236C644.01 309.439 643.384 309.61 642.358 310.749C641.333 311.888 640.877 313.426 640.991 315.363C641.219 317.3 640.991 318.212 640.308 318.098C639.624 317.87 639.111 319.522 638.77 323.054C637.516 329.434 637.402 332.282 638.428 331.599C639.567 330.801 639.168 331.2 637.231 332.795C635.295 334.39 634.782 335.586 635.693 336.384C636.605 337.067 637.004 337.01 636.89 336.213C636.89 335.301 637.118 337.979 637.573 344.245L628.516 342.194ZM634.668 384.406C632.503 383.495 631.478 382.754 631.592 382.185C631.82 381.729 632.959 382.242 635.01 383.723C637.061 385.204 636.947 385.432 634.668 384.406ZM622.363 169.074C623.047 169.302 622.933 169.416 622.021 169.416C621.224 169.416 620.882 169.302 620.996 169.074C621.224 168.732 621.68 168.732 622.363 169.074ZM633.13 222.053C633.13 221.711 632.048 221.939 629.883 222.736C627.718 223.534 627.718 223.705 629.883 223.249C632.048 222.793 633.13 222.395 633.13 222.053ZM634.326 224.104C635.124 222.736 635.124 222.167 634.326 222.395C633.529 222.508 633.13 223.135 633.13 224.274C633.13 225.414 633.529 225.357 634.326 224.104ZM641.846 168.562C641.618 168.903 640.422 168.96 638.257 168.732C636.206 168.391 634.953 167.935 634.497 167.365C634.155 166.796 635.352 166.739 638.086 167.194C640.934 167.65 642.188 168.106 641.846 168.562ZM645.776 287.678C648.283 279.019 650.448 275.316 652.271 276.569C654.093 277.709 654.492 278.563 653.467 279.133C652.441 279.702 651.359 281.753 650.22 285.285L652.783 290.07L645.776 287.678ZM653.296 273.322C651.131 273.208 650.391 271.442 651.074 268.024C651.758 264.493 653.182 263.866 655.347 266.145C657.625 268.423 658.594 270.474 658.252 272.297C657.91 274.006 657.511 274.632 657.056 274.177C656.714 273.721 655.461 273.436 653.296 273.322ZM652.271 262.043C655.916 253.384 658.309 246.434 659.448 241.193C660.701 235.839 662.183 230.427 663.892 224.958C665.601 219.489 667.082 217.097 668.335 217.78C669.588 218.464 669.588 219.318 668.335 220.344C667.082 221.255 667.424 222.85 669.36 225.129C671.411 227.408 671.24 228.319 668.848 227.863C666.455 227.294 665.259 229.117 665.259 233.332C667.424 235.497 667.367 236.351 665.088 235.896C662.809 235.44 662.012 237.377 662.695 241.706C663.379 246.035 663.151 247.972 662.012 247.517C660.872 246.947 659.961 247.232 659.277 248.371C658.594 249.51 658.936 249.738 660.303 249.055C661.67 248.257 661.328 249.852 659.277 253.84C657.227 257.827 657.17 260.277 659.106 261.188C661.043 261.986 660.645 262.271 657.91 262.043C655.29 261.815 654.15 261.53 654.492 261.188C654.948 260.733 654.207 261.018 652.271 262.043ZM658.252 165.827C659.277 167.992 658.423 168.96 655.688 168.732C652.954 168.505 651.587 167.764 651.587 166.511C651.701 165.257 652.555 164.289 654.15 163.605C655.859 162.922 657.227 163.662 658.252 165.827ZM666.626 215.217C674.259 189.012 678.703 174.543 679.956 171.809C681.209 168.96 681.095 167.422 679.614 167.194C678.133 166.966 678.589 167.023 680.981 167.365C683.488 167.593 684.456 167.821 683.887 168.049C683.431 168.277 683.716 169.074 684.741 170.441C685.767 171.695 685.14 174.144 682.861 177.79C680.697 181.322 679.899 182.917 680.469 182.575C681.152 182.233 680.469 182.632 678.418 183.771C676.481 184.911 677.222 185.139 680.64 184.455C682.235 186.164 681.893 187.417 679.614 188.215C677.45 188.898 676.766 190.607 677.563 193.342C678.361 196.076 678.304 197.557 677.393 197.785C676.595 197.899 676.082 199.038 675.854 201.203C675.741 203.368 674.715 203.881 672.778 202.741C670.841 201.602 669.816 202.229 669.702 204.621C669.588 207.014 670.101 209.007 671.24 210.603C672.493 212.198 670.955 213.736 666.626 215.217ZM670.044 165.314C671.297 166.568 671.126 167.308 669.531 167.536C667.936 167.764 667.31 167.137 667.651 165.656C668.107 164.061 668.905 163.947 670.044 165.314ZM640.308 234.357C642.131 235.155 643.327 235.611 643.896 235.725C644.352 235.839 643.27 235.896 640.649 235.896C637.915 235.896 636.719 235.44 637.061 234.528C637.288 233.503 638.371 233.446 640.308 234.357ZM639.795 188.044C640.023 186.905 640.08 186.962 639.966 188.215C639.852 189.468 639.738 190.038 639.624 189.924C639.396 189.81 639.453 189.183 639.795 188.044ZM654.492 214.191C648.454 211.343 645.833 209.691 646.631 209.235C647.314 208.78 646.859 208.552 645.264 208.552C643.669 208.438 642.871 207.128 642.871 204.621C642.757 202.001 643.042 200.349 643.726 199.665C644.295 198.981 645.207 200.406 646.46 203.938C647.599 207.469 649.137 209.805 651.074 210.944C652.897 212.084 652.84 209.862 650.903 204.279C655.802 205.646 657.568 207.469 656.201 209.748C654.72 211.913 654.15 213.394 654.492 214.191ZM637.402 379.963C646.175 360.367 651.416 351.537 653.125 353.474C654.72 355.41 656.144 355.354 657.397 353.303C658.537 351.138 657.682 350.113 654.834 350.227C651.986 350.34 651.473 348.632 653.296 345.1C655.119 341.568 656.315 338.378 656.885 335.529C657.454 332.681 658.366 330.858 659.619 330.061C660.758 329.149 660.929 328.522 660.132 328.181C659.334 327.839 660.588 324.421 663.892 317.927C667.196 311.319 669.019 306.59 669.36 303.742C669.702 300.894 673.006 292.919 679.272 279.816C685.653 266.714 690.609 254.751 694.141 243.928C697.673 232.99 700.407 225.642 702.344 221.882C704.395 218.122 705.819 216.926 706.616 218.293C707.414 219.66 708.04 219.945 708.496 219.147C708.952 218.236 709.465 218.065 710.034 218.635C710.718 219.204 710.832 218.92 710.376 217.78C710.034 216.527 709.749 216.242 709.521 216.926C709.294 217.495 708.61 217.382 707.471 216.584C706.445 215.673 709.351 206.786 716.187 189.924C723.022 173.062 727.067 164.574 728.32 164.46C729.574 164.346 729.46 164.745 727.979 165.656C726.497 166.568 727.01 167.65 729.517 168.903C732.023 170.043 732.65 168.448 731.396 164.118C763.298 165.144 790.869 165.941 814.111 166.511C837.354 166.966 851.595 166.796 856.836 165.998C862.191 165.087 869.198 164.973 877.856 165.656C886.629 166.226 905.371 166.625 934.082 166.853C929.753 177.106 927.36 183.771 926.904 186.848C926.449 189.924 923.429 198.013 917.847 211.115C912.378 224.217 908.789 231.965 907.08 234.357C905.485 236.75 904.004 240.624 902.637 245.979C901.383 251.333 895.744 266.088 885.718 290.241C875.692 314.281 870.109 326.757 868.97 327.668C867.83 328.465 867.773 328.864 868.799 328.864C869.824 328.75 869.141 331.485 866.748 337.067C864.355 342.65 862.988 345.043 862.646 344.245C862.419 343.448 861.108 346.581 858.716 353.645C856.323 360.594 854.386 364.753 852.905 366.12C851.424 367.487 851.253 368.456 852.393 369.025C853.532 369.595 851.481 376.944 846.24 391.071C822.201 389.362 804.427 388.052 792.92 387.141C781.527 386.343 774.52 386.115 771.899 386.457C769.393 386.913 766.545 386.742 763.354 385.944C760.164 385.147 755.55 384.976 749.512 385.432C743.587 385.887 739.087 385.83 736.011 385.261C733.049 384.691 735.099 383.495 742.163 381.672C749.227 379.963 752.531 378.653 752.075 377.741C751.733 376.83 753.556 376.944 757.544 378.083C759.823 376.146 761.418 375.804 762.329 377.058C763.241 378.311 766.203 378.254 771.216 376.887C776.229 375.52 779.248 374.38 780.273 373.469C781.299 372.557 782.096 372.443 782.666 373.127C783.236 373.924 784.204 373.924 785.571 373.127C786.938 372.329 788.306 372.272 789.673 372.956C791.154 373.64 792.179 373.64 792.749 372.956C793.319 372.272 794.914 371.988 797.534 372.102C800.155 372.215 801.978 371.646 803.003 370.393C804.028 369.253 805.339 369.025 806.934 369.709C808.529 370.393 808.87 370.108 807.959 368.854C807.161 367.601 805.908 367.43 804.199 368.342C802.604 369.253 800.667 369.31 798.389 368.513C796.11 367.715 794.914 367.886 794.8 369.025C794.686 370.279 793.774 370.848 792.065 370.734C790.356 370.734 786.938 370.677 781.812 370.563C769.849 372.159 763.241 373.241 761.987 373.811C760.734 374.494 758.683 374.665 755.835 374.323C752.987 373.981 750.594 374.266 748.657 375.178C746.72 376.203 744.954 377.229 743.359 378.254C741.878 379.393 739.03 379.906 734.814 379.792C730.713 379.678 728.092 380.134 726.953 381.159C725.928 382.299 724.561 382.868 722.852 382.868C721.257 382.868 709.635 382.299 687.988 381.159C666.341 380.134 653.866 379.792 650.562 380.134C647.144 380.59 642.757 380.533 637.402 379.963ZM656.885 176.936L664.917 172.834C664.689 173.859 663.322 175.568 660.815 177.961C658.309 180.354 656.885 180.98 656.543 179.841C656.201 178.588 654.834 178.189 652.441 178.645C650.049 178.986 649.935 178.531 652.1 177.277C654.15 175.91 655.347 175.682 655.688 176.594C655.916 177.505 656.486 177.904 657.397 177.79C658.309 177.676 658.138 177.391 656.885 176.936ZM656.885 331.428C656.885 331.428 656.372 331.542 655.347 331.77C654.321 331.883 653.979 330.858 654.321 328.693C654.549 326.415 655.404 325.674 656.885 326.472C658.252 327.269 658.594 328.295 657.91 329.548C657.227 330.687 656.885 331.314 656.885 331.428ZM657.056 371.931C656.144 371.817 655.973 372.102 656.543 372.785C656.999 373.469 657.397 373.526 657.739 372.956C658.081 372.5 657.853 372.159 657.056 371.931ZM665.942 255.72C665.942 256.062 665.316 255.264 664.062 253.327C662.695 251.276 662.638 251.049 663.892 252.644C665.145 254.239 665.828 255.264 665.942 255.72ZM666.797 212.653C667.708 213.679 668.221 214.932 668.335 216.413C668.449 217.894 667.993 217.382 666.968 214.875C665.942 212.255 665.885 211.514 666.797 212.653ZM659.619 356.037C659.163 357.176 658.936 358.259 658.936 359.284C658.936 360.31 659.163 359.74 659.619 357.575C660.075 355.41 660.075 354.898 659.619 356.037ZM674.316 264.606C673.177 267.113 672.095 267.341 671.069 265.29C670.158 263.125 668.848 261.872 667.139 261.53C665.43 261.075 665.601 259.65 667.651 257.258C669.702 254.751 670.785 254.865 670.898 257.6C671.012 260.22 671.924 261.416 673.633 261.188C675.342 260.961 675.57 262.1 674.316 264.606ZM672.949 200.69C674.544 199.893 675.285 200.52 675.171 202.57C675.057 204.507 674.259 204.906 672.778 203.767C671.411 202.513 671.468 201.488 672.949 200.69ZM679.102 170.954C678.646 172.549 678.019 174.201 677.222 175.91C676.538 177.619 675.627 177.049 674.487 174.201C673.348 171.353 673.975 169.701 676.367 169.245C678.76 168.789 679.671 169.359 679.102 170.954ZM675.684 334.333C676.709 335.358 676.481 335.074 675 333.479C673.633 331.883 672.607 331.314 671.924 331.77C671.24 332.225 670.785 333.649 670.557 336.042C670.443 338.321 670.898 339.346 671.924 339.118C673.063 338.776 673.519 337.409 673.291 335.017C673.063 332.624 673.177 331.656 673.633 332.111C674.089 332.453 674.772 333.194 675.684 334.333ZM690.552 178.645C690.324 178.758 689.299 179.442 687.476 180.695C685.653 181.949 685.539 181.379 687.134 178.986C688.729 176.594 689.754 175.91 690.21 176.936C690.666 177.961 690.78 178.531 690.552 178.645ZM684.229 321.516C684.684 321.06 684.513 319.921 683.716 318.098C683.032 316.161 682.064 316.218 680.811 318.269C679.557 320.319 679.671 321.459 681.152 321.687C682.747 321.914 683.773 321.857 684.229 321.516ZM696.021 167.023C695.337 169.302 694.881 169.53 694.653 167.707C694.425 165.77 693.229 164.118 691.064 162.751C688.9 161.384 688.159 160.472 688.843 160.017C689.64 159.561 690.78 160.244 692.261 162.067C693.742 163.89 694.938 164.631 695.85 164.289C696.761 163.833 696.818 164.745 696.021 167.023ZM685.767 292.463C687.476 290.982 687.646 289.842 686.279 289.045C684.912 288.133 684.058 288.817 683.716 291.096C683.488 293.374 684.172 293.83 685.767 292.463ZM692.773 394.66L684.058 397.907C685.653 395.97 688.786 393.977 693.457 391.926C698.242 389.989 701.09 389.191 702.002 389.533C703.027 389.875 703.939 389.305 704.736 387.824C705.648 386.457 707.471 385.66 710.205 385.432C713.053 385.204 716.3 384.691 719.946 383.894C723.706 383.21 726.27 383.039 727.637 383.381C729.004 383.723 728.605 384.349 726.44 385.261C724.276 386.286 721.997 386.799 719.604 386.799C717.212 386.799 715.902 387.312 715.674 388.337C715.446 389.476 712.541 390.331 706.958 390.9C701.375 391.584 698.185 392.268 697.388 392.951C696.704 393.635 696.077 393.692 695.508 393.122C694.938 392.666 694.027 393.179 692.773 394.66ZM703.198 179.841C702.629 179.157 702.515 177.847 702.856 175.91C703.198 173.973 703.711 172.834 704.395 172.492C705.078 172.15 705.192 173.461 704.736 176.423C704.395 179.271 703.882 180.41 703.198 179.841ZM695.508 394.66C694.71 394.66 694.995 394.66 696.362 394.66C697.729 394.66 698.242 395.173 697.9 396.198C697.673 397.338 697.388 397.338 697.046 396.198C696.818 395.173 696.305 394.66 695.508 394.66ZM700.806 362.019C699.438 361.563 698.812 361.848 698.926 362.873C699.04 363.785 699.723 364.012 700.977 363.557C702.23 362.987 702.173 362.474 700.806 362.019ZM789.502 355.695C776.855 356.379 768.538 356.835 764.551 357.062C760.677 357.176 754.126 352.562 744.897 343.22C743.302 329.548 742.505 321.573 742.505 319.294C742.619 316.901 743.132 314.737 744.043 312.8C745.068 310.749 745.011 308.812 743.872 306.989C742.847 305.166 742.505 303.799 742.847 302.888C743.302 301.976 742.961 301.236 741.821 300.666C740.796 300.096 741.252 298.957 743.188 297.248C745.239 295.539 745.98 295.425 745.41 296.906C744.84 298.387 745.068 296.564 746.094 291.438C747.119 286.311 748.201 282.095 749.341 278.791C750.594 275.373 752.132 272.924 753.955 271.442C755.892 269.961 756.746 268.708 756.519 267.683C756.405 266.657 756.974 265.176 758.228 263.239C759.481 261.188 760.05 259.024 759.937 256.745C759.823 254.466 760.62 252.814 762.329 251.789C764.038 250.65 766.374 247.061 769.336 241.022C772.412 234.87 774.064 230.769 774.292 228.718C774.634 226.553 774.748 226.382 774.634 228.205C774.634 230.028 777.824 226.781 784.204 218.464C790.698 210.147 795.939 204.963 799.927 202.912C804.028 200.861 806.934 198.412 808.643 195.563C818.555 194.538 824.422 194.082 826.245 194.196C828.182 194.31 831.372 197.899 835.815 204.963C836.157 214.419 835.531 222.338 833.936 228.718C832.454 235.098 831.942 238.516 832.397 238.972C832.853 239.313 832.739 239.598 832.056 239.826C831.372 239.94 830.802 241.649 830.347 244.953C830.005 248.257 831.486 254.239 834.79 262.897C850.513 264.379 861.735 259.593 868.457 248.542C868.799 240.339 869.482 235.725 870.508 234.699C871.533 233.56 871.077 229.8 869.141 223.42C867.204 216.926 864.811 211.799 861.963 208.039C859.115 204.165 857.747 202.912 857.861 204.279C857.975 205.646 857.007 206.216 854.956 205.988C853.019 205.646 852.962 204.906 854.785 203.767C856.608 202.627 856.152 201.488 853.418 200.349C850.798 199.095 849.316 198.981 848.975 200.007C848.747 200.918 848.006 200.975 846.753 200.178C845.5 199.266 844.873 198.412 844.873 197.614C844.987 196.817 844.189 195.677 842.48 194.196C840.885 192.601 839.29 191.918 837.695 192.146C836.214 192.373 832.113 191.69 825.391 190.095C818.669 188.386 813.599 188.044 810.181 189.069C806.763 190.095 804.256 190.38 802.661 189.924C801.066 189.468 798.104 190.266 793.774 192.316C789.445 194.253 785.742 195.507 782.666 196.076C779.59 196.532 772.868 199.893 762.5 206.159C752.132 212.425 744.954 217.211 740.967 220.515C737.093 223.819 733.447 227.806 730.029 232.478C726.611 237.035 724.674 241.022 724.219 244.44C723.763 247.744 721.655 251.618 717.896 256.062C714.25 260.391 712.598 263.239 712.939 264.606C713.395 265.974 712.882 267.512 711.401 269.221C710.034 270.816 708.724 274.234 707.471 279.475C706.217 284.602 705.648 288.988 705.762 292.634C705.876 296.28 705.192 300.153 703.711 304.255C702.23 308.356 702.686 314.737 705.078 323.396C707.471 331.94 710.034 338.15 712.769 342.023C715.503 345.783 718.465 348.632 721.655 350.568C724.845 352.391 726.611 353.872 726.953 355.012C727.409 356.151 730.143 357.575 735.156 359.284C740.169 360.993 743.302 362.531 744.556 363.898C745.809 365.152 747.632 365.607 750.024 365.266C752.531 364.81 754.639 364.867 756.348 365.437C758.057 365.892 760.791 365.607 764.551 364.582C768.424 363.443 771.159 363.215 772.754 363.898C774.349 364.582 776.799 364.411 780.103 363.386C783.407 362.36 786.711 361.278 790.015 360.139C793.319 358.885 793.148 357.404 789.502 355.695ZM738.062 166.169C738.062 166.511 737.663 167.023 736.865 167.707C736.182 168.277 736.865 168.846 738.916 169.416C741.081 169.986 741.479 169.473 740.112 167.878C738.859 166.283 738.175 165.713 738.062 166.169ZM730.713 316.389C731.966 316.275 732.422 316.56 732.08 317.243C731.738 317.927 731.112 317.984 730.2 317.414C729.289 316.73 729.46 316.389 730.713 316.389ZM744.727 198.64C744.499 200.69 745.353 201.146 747.29 200.007C749.341 198.754 749.512 197.671 747.803 196.76C746.094 195.848 745.068 196.475 744.727 198.64ZM749.341 227.521C749.341 227.521 750.423 227.863 752.588 228.547C754.867 229.117 754.753 229.344 752.246 229.23C749.74 229.117 748.657 228.775 748.999 228.205C749.341 227.635 749.455 227.408 749.341 227.521ZM753.271 281.013C751.676 281.468 751.904 282.38 753.955 283.747C756.12 285 756.917 284.715 756.348 282.893C755.892 281.07 754.867 280.443 753.271 281.013ZM750.708 335.871C752.075 337.694 753.215 338.492 754.126 338.264C755.151 337.922 754.468 336.953 752.075 335.358C749.797 333.763 749.341 333.934 750.708 335.871ZM767.114 173.347C765.747 174.942 766.032 175.34 767.969 174.543C769.906 173.632 770.589 172.834 770.02 172.15C769.564 171.353 768.595 171.752 767.114 173.347ZM764.038 336.896C760.734 337.352 759.025 338.036 758.911 338.947C758.797 339.859 760.449 339.631 763.867 338.264C767.285 336.783 767.342 336.327 764.038 336.896ZM767.798 215.046C766.545 215.046 766.317 214.021 767.114 211.97C768.026 209.805 768.709 209.748 769.165 211.799C769.621 213.85 769.165 214.932 767.798 215.046ZM769.678 283.747C771.273 283.405 771.615 282.722 770.703 281.696C769.792 280.557 768.994 280.671 768.311 282.038C767.741 283.405 766.715 284.203 765.234 284.431C763.753 284.659 763.468 285.342 764.38 286.481C765.291 287.621 766.032 287.507 766.602 286.14C767.171 284.772 768.197 283.975 769.678 283.747ZM778.052 256.062C778.621 254.239 777.539 254.466 774.805 256.745C772.184 259.024 771.045 259.366 771.387 257.771C771.729 256.175 771.102 255.891 769.507 256.916C767.912 257.827 767.627 258.91 768.652 260.163C769.678 261.416 770.076 262.784 769.849 264.265C769.621 265.632 769.735 265.347 770.19 263.41C770.646 261.359 771.558 259.764 772.925 258.625C774.292 257.372 775.317 257.087 776.001 257.771C776.799 258.34 777.482 257.771 778.052 256.062ZM770.874 260.334C770.874 260.334 770.646 260.505 770.19 260.847C769.735 261.075 769.735 261.018 770.19 260.676C770.646 260.334 770.874 260.22 770.874 260.334ZM774.463 233.332C774.577 231.737 774.235 231.509 773.438 232.648C772.754 233.788 772.697 234.585 773.267 235.041C773.95 235.383 774.349 234.813 774.463 233.332ZM783.179 250.422C782.267 248.029 781.812 246.548 781.812 245.979C781.812 245.409 781.128 245.466 779.761 246.149C778.394 246.833 778.849 248.314 781.128 250.593C783.407 252.757 784.09 252.701 783.179 250.422ZM782.324 261.701C780.273 262.043 779.305 263.011 779.419 264.606C779.647 266.201 780.672 266.031 782.495 264.094C784.432 262.157 784.375 261.359 782.324 261.701ZM780.786 338.947C784.318 339.631 785.286 339.289 783.691 337.922C782.096 336.441 781.128 336.156 780.786 337.067C780.558 337.865 779.59 338.207 777.881 338.093C776.286 337.979 777.254 338.264 780.786 338.947ZM786.084 181.037C786.54 180.695 787.622 179.955 789.331 178.815C791.154 177.676 791.439 176.537 790.186 175.397C788.932 174.144 787.85 174.828 786.938 177.448C786.027 180.069 785.742 181.265 786.084 181.037ZM788.135 284.26C789.388 282.893 789.958 281.867 789.844 281.184C789.844 280.386 788.818 280.842 786.768 282.551C784.717 284.26 784.09 285.285 784.888 285.627C785.799 285.969 786.882 285.513 788.135 284.26ZM783.179 344.245C783.065 345.043 783.691 346.125 785.059 347.492C786.426 348.859 787.109 348.29 787.109 345.783C787.223 343.277 786.654 342.194 785.4 342.536C784.147 342.878 783.407 343.448 783.179 344.245ZM793.604 304.255C794.515 303.457 794.743 302.888 794.287 302.546C793.831 302.09 792.863 303.002 791.382 305.28C790.015 307.445 789.844 308.015 790.869 306.989C791.895 305.964 792.806 305.052 793.604 304.255ZM792.236 335.358C791.325 336.726 791.268 337.808 792.065 338.605C792.863 339.403 793.831 338.776 794.971 336.726C796.11 334.675 796.167 333.592 795.142 333.479C794.23 333.251 793.262 333.877 792.236 335.358ZM798.901 252.302C798.56 252.757 798.787 252.985 799.585 252.985C800.496 252.871 800.724 252.587 800.269 252.131C799.813 251.675 800.098 250.65 801.123 249.055C802.262 247.46 801.693 246.89 799.414 247.346C797.249 247.801 796.737 248.599 797.876 249.738C799.015 250.878 799.357 251.732 798.901 252.302ZM818.896 335.017C805.908 344.017 798.56 348.973 796.851 349.885C795.256 350.796 793.49 352.733 791.553 355.695C793.945 355.354 795.199 355.638 795.312 356.55C795.54 357.347 798.901 356.094 805.396 352.79C811.89 349.372 816.39 345.84 818.896 342.194C821.517 338.549 822.201 337.181 820.947 338.093C819.694 338.89 819.01 337.865 818.896 335.017ZM802.832 236.579C802.148 234.528 801.18 233.218 799.927 232.648C798.787 232.079 799.186 233.104 801.123 235.725C803.06 238.345 803.63 238.63 802.832 236.579ZM803.003 204.45C802.661 205.362 802.832 205.874 803.516 205.988C804.199 205.988 804.37 205.476 804.028 204.45C803.687 203.425 803.345 203.425 803.003 204.45ZM797.705 355.695C796.338 356.493 795.939 355.752 796.509 353.474C797.192 351.081 797.933 350.682 798.73 352.277C799.528 353.758 799.186 354.898 797.705 355.695ZM819.238 234.016C820.036 233.902 819.238 233.959 816.846 234.187C814.453 234.3 813.656 235.041 814.453 236.408C815.365 237.661 816.219 237.604 817.017 236.237C817.814 234.87 818.555 234.13 819.238 234.016ZM818.896 335.017C819.922 334.789 820.605 334.39 820.947 333.82C821.289 333.251 820.947 332.738 819.922 332.282C818.896 331.713 818.555 332.624 818.896 335.017ZM851.367 288.361C851.253 290.526 850.342 291.893 848.633 292.463C847.038 293.033 843.335 298.444 837.524 308.698C831.828 318.838 827.726 325.446 825.22 328.522C822.713 331.485 822.144 333.308 823.511 333.991C824.878 334.675 825.22 335.358 824.536 336.042C823.853 336.726 824.194 337.637 825.562 338.776C827.043 339.916 828.125 339.403 828.809 337.238C829.606 334.96 829.207 334.105 827.612 334.675C826.131 335.131 826.587 333.877 828.979 330.915C831.372 327.839 833.366 325.788 834.961 324.763C836.67 323.737 837.41 322.085 837.183 319.807C840.828 314.908 842.708 311.49 842.822 309.553C843.05 307.616 844.531 305.223 847.266 302.375C850 299.527 851.766 297.02 852.563 294.855C853.361 292.577 853.304 291.381 852.393 291.267C851.595 291.153 851.253 290.184 851.367 288.361ZM828.979 236.921C830.688 238.06 830.916 237.889 829.663 236.408C828.524 234.927 827.726 234.357 827.271 234.699C826.815 234.927 827.384 235.668 828.979 236.921ZM834.448 296.394C834.334 295.938 833.537 295.425 832.056 294.855C830.688 294.172 830.802 294.742 832.397 296.564C834.106 298.273 835.189 298.957 835.645 298.615C836.1 298.16 836.043 297.761 835.474 297.419C834.904 297.077 834.562 296.735 834.448 296.394ZM831.885 353.474C831.201 355.297 831.942 355.923 834.106 355.354C836.385 354.784 836.784 353.872 835.303 352.619C833.822 351.252 832.682 351.537 831.885 353.474ZM841.968 330.231C841.626 329.662 841.398 328.693 841.284 327.326C841.284 325.845 840.316 325.788 838.379 327.155C836.556 328.409 836.784 329.377 839.062 330.061C841.455 330.744 842.424 330.801 841.968 330.231ZM847.607 196.418C845.898 196.418 845.785 196.76 847.266 197.443C848.747 198.127 849.601 198.127 849.829 197.443C850.057 196.646 849.316 196.304 847.607 196.418ZM840.259 370.222C840.601 368.854 840.202 369.025 839.062 370.734C837.923 372.557 837.752 373.298 838.55 372.956C839.461 372.614 840.031 371.703 840.259 370.222ZM841.797 376.374C841.113 373.412 840.43 373.07 839.746 375.349C839.176 377.741 839.575 379.279 840.942 379.963C842.31 380.646 842.594 379.45 841.797 376.374ZM861.621 215.559C862.077 214.533 862.305 214.59 862.305 215.729C862.419 216.869 862.248 217.382 861.792 217.268C861.336 217.04 860.71 217.78 859.912 219.489C859.115 221.198 858.83 221.084 859.058 219.147C859.399 217.097 859.798 216.242 860.254 216.584C860.824 216.812 861.279 216.47 861.621 215.559ZM858.887 337.067C857.406 338.207 856.095 338.947 854.956 339.289C853.817 339.517 853.475 340.03 853.931 340.827C854.386 341.625 855.697 340.884 857.861 338.605C860.14 336.327 860.482 335.814 858.887 337.067ZM855.127 366.633C855.241 366.405 855.298 366.975 855.298 368.342C855.412 369.709 855.241 370.279 854.785 370.051C854.329 369.937 854.272 369.367 854.614 368.342C854.956 367.316 855.127 366.747 855.127 366.633ZM864.185 348.518C864.868 350.454 864.811 351.252 864.014 350.91C863.216 350.568 862.874 349.6 862.988 348.005C863.102 346.296 863.501 346.467 864.185 348.518ZM871.533 327.839C871.989 328.409 871.875 328.693 871.191 328.693C870.622 328.693 870.451 328.409 870.679 327.839C870.907 327.155 871.191 327.155 871.533 327.839ZM873.413 328.522C874.211 328.409 874.552 328.978 874.438 330.231C874.438 331.485 874.04 331.542 873.242 330.402C872.559 329.263 872.616 328.636 873.413 328.522Z" fill="#EEEEEE"/>
</svg>
